<?xml version="1.0" standalone="no"?>
<!DOCTYPE svg PUBLIC "-//W3C//DTD SVG 20010904//EN"
 "http://www.w3.org/TR/2001/REC-SVG-20010904/DTD/svg10.dtd">
<svg version="1.0" xmlns="http://www.w3.org/2000/svg"
 width="260.000000pt" height="260.000000pt" viewBox="0 0 260.000000 260.000000"
 preserveAspectRatio="xMidYMid meet">
<metadata>
Created by potrace 1.11, written by Peter Selinger 2001-2013
</metadata>
<g transform="translate(0.000000,260.000000) scale(0.100000,-0.100000)"
fill="#000000" stroke="none">
<path d="M0 1300 l0 -1300 1300 0 1300 0 0 1300 0 1300 -1300 0 -1300 0 0
-1300z m1845 579 l26 -32 57 22 c118 46 116 46 177 21 30 -12 60 -31 66 -42
18 -34 29 -236 29 -557 0 -196 -4 -337 -12 -377 -9 -53 -9 -66 4 -86 11 -17
14 -38 11 -72 l-6 -48 -98 4 c-142 4 -137 -4 -126 228 5 102 10 304 11 450 1
264 1 265 -23 308 -14 23 -30 41 -35 39 -6 -2 -14 -37 -17 -78 -4 -41 -12 -93
-20 -117 -7 -26 -9 -46 -3 -50 8 -6 10 -598 2 -722 -4 -54 -24 -76 -49 -54
-15 13 -26 13 -79 2 -51 -10 -63 -10 -70 1 -15 25 -22 121 -15 206 4 48 2 143
-5 223 -11 126 -11 147 5 211 13 54 16 102 13 211 l-3 142 -29 25 -29 25 -19
-24 c-17 -20 -18 -33 -12 -108 14 -187 14 -554 -2 -725 -8 -93 -19 -174 -24
-179 -13 -13 -140 -19 -180 -9 -45 12 -48 34 -21 140 20 77 20 93 11 413 -7
249 -7 342 2 366 8 24 8 56 0 133 -7 56 -12 109 -12 118 0 14 13 15 103 11 72
-3 111 -9 126 -20 21 -15 26 -14 64 8 31 17 57 24 99 24 51 0 59 -3 83 -31z
m-1039 -1 c42 -23 65 -74 63 -140 -2 -29 3 -89 9 -133 9 -64 9 -107 -2 -213
-11 -100 -12 -150 -4 -200 6 -36 7 -112 4 -169 -3 -57 -9 -150 -12 -207 -7
-120 -2 -116 -119 -116 -45 0 -78 5 -91 14 -18 13 -22 13 -37 -5 -19 -22 -50
-24 -130 -8 -49 10 -60 17 -80 48 -21 35 -22 45 -22 273 l0 237 60 44 c33 24
76 52 97 61 20 10 56 42 79 72 l44 54 -4 107 c-1 60 -5 110 -7 112 -9 9 -57 2
-65 -10 -5 -8 -9 -55 -9 -106 l0 -92 -46 -7 c-54 -8 -119 0 -139 16 -12 10
-15 41 -15 142 0 120 2 132 23 158 12 15 27 35 32 44 20 34 83 46 215 43 94
-2 133 -7 156 -19z m452 -290 c8 -8 12 -49 12 -120 l0 -108 -100 0 c-78 0
-100 3 -100 14 0 17 29 186 36 209 4 14 17 17 73 17 39 0 72 -5 79 -12z m-12
-608 c23 -9 24 -12 24 -120 l0 -110 -100 0 c-55 0 -100 3 -100 8 0 12 19 124
30 177 l10 50 56 2 c31 1 66 -2 80 -7z"/>
<path d="M600 1193 c-20 -25 -20 -34 -14 -152 9 -152 14 -176 40 -176 16 0 20
10 27 60 9 64 3 249 -8 278 -10 24 -20 21 -45 -10z"/>
</g>
</svg>
