<?xml version="1.0" encoding="UTF-8" standalone="no"?>
<!DOCTYPE svg PUBLIC "-//W3C//DTD SVG 1.1//EN" "http://www.w3.org/Graphics/SVG/1.1/DTD/svg11.dtd">
<svg width="100%" height="100%" viewBox="0 0 2365 1141" version="1.1" xmlns="http://www.w3.org/2000/svg" xmlns:xlink="http://www.w3.org/1999/xlink" xml:space="preserve" xmlns:serif="http://www.serif.com/" style="fill-rule:evenodd;clip-rule:evenodd;stroke-linejoin:round;stroke-miterlimit:2;">
    <g transform="matrix(1,0,0,1,-569.623,-601.682)">
        <g transform="matrix(4.16667,0,0,4.16667,0,0)">
            <path d="M210.333,283.842C210.333,285.212 210.275,286.367 210.162,287.302C210.047,288.239 209.864,288.981 209.613,289.529C209.362,290.077 209.076,290.488 208.757,290.762C208.437,291.037 208.072,291.173 207.661,291.173L178.678,291.173L178.678,315.017L205.879,315.017C206.29,315.017 206.655,315.132 206.976,315.36C207.294,315.589 207.58,315.976 207.832,316.525C208.083,317.073 208.266,317.804 208.38,318.717C208.494,319.631 208.551,320.773 208.551,322.143C208.551,323.513 208.494,324.656 208.38,325.569C208.266,326.483 208.083,327.237 207.832,327.829C207.58,328.424 207.294,328.847 206.976,329.097C206.655,329.349 206.29,329.474 205.879,329.474L178.678,329.474L178.678,362.499C178.678,363.002 178.541,363.436 178.267,363.801C177.993,364.167 177.501,364.476 176.794,364.726C176.085,364.978 175.16,365.171 174.019,365.308C172.876,365.446 171.415,365.514 169.634,365.514C167.897,365.514 166.448,365.446 165.283,365.308C164.118,365.171 163.193,364.978 162.508,364.726C161.823,364.476 161.332,364.167 161.035,363.801C160.737,363.436 160.589,363.002 160.589,362.499L160.589,282.129C160.589,280.12 161.104,278.669 162.131,277.778C163.159,276.888 164.426,276.442 165.934,276.442L207.661,276.442C208.072,276.442 208.437,276.569 208.757,276.819C209.076,277.071 209.362,277.482 209.613,278.053C209.864,278.624 210.047,279.389 210.162,280.348C210.275,281.307 210.333,282.472 210.333,283.842Z" style="fill:white;fill-rule:nonzero;"/>
        </g>
        <g transform="matrix(4.16667,0,0,4.16667,0,0)">
            <path d="M267.544,302.616C267.544,299.693 266.881,297.226 265.557,295.216C264.232,293.206 262.062,291.79 259.048,290.968C258.134,290.74 257.095,290.557 255.931,290.42C254.766,290.283 253.156,290.214 251.1,290.214L243.015,290.214L243.015,315.36L252.196,315.36C254.754,315.36 256.993,315.051 258.911,314.435C260.829,313.818 262.428,312.952 263.708,311.83C264.985,310.712 265.945,309.376 266.585,307.823C267.224,306.27 267.544,304.534 267.544,302.616ZM290.771,362.774C290.771,363.277 290.679,363.699 290.498,364.041C290.314,364.383 289.881,364.669 289.195,364.898C288.51,365.125 287.505,365.285 286.181,365.377C284.855,365.468 283.051,365.514 280.768,365.514C278.85,365.514 277.318,365.468 276.177,365.377C275.035,365.285 274.132,365.114 273.471,364.863C272.808,364.613 272.34,364.292 272.066,363.904C271.792,363.516 271.563,363.047 271.381,362.499L263.433,342.698C262.474,340.46 261.536,338.473 260.624,336.737C259.709,335.001 258.694,333.551 257.575,332.386C256.454,331.221 255.165,330.342 253.704,329.748C252.241,329.156 250.552,328.858 248.634,328.858L243.015,328.858L243.015,362.636C243.015,363.093 242.866,363.504 242.57,363.87C242.272,364.236 241.782,364.533 241.097,364.76C240.412,364.99 239.498,365.171 238.356,365.308C237.214,365.446 235.752,365.514 233.971,365.514C232.234,365.514 230.785,365.446 229.62,365.308C228.456,365.171 227.53,364.99 226.845,364.76C226.16,364.533 225.681,364.236 225.406,363.87C225.132,363.504 224.995,363.093 224.995,362.636L224.995,282.129C224.995,280.12 225.509,278.669 226.537,277.778C227.565,276.888 228.832,276.442 230.34,276.442L253.293,276.442C255.622,276.442 257.54,276.488 259.048,276.579C260.556,276.671 261.926,276.785 263.159,276.922C266.722,277.425 269.931,278.292 272.786,279.526C275.64,280.759 278.062,282.369 280.048,284.356C282.036,286.343 283.554,288.696 284.605,291.413C285.655,294.131 286.181,297.249 286.181,300.765C286.181,303.736 285.804,306.442 285.05,308.885C284.296,311.329 283.188,313.51 281.727,315.428C280.265,317.347 278.461,319.015 276.314,320.43C274.167,321.846 271.724,322.989 268.983,323.856C270.307,324.496 271.552,325.272 272.717,326.185C273.882,327.1 274.979,328.206 276.006,329.508C277.034,330.81 278.004,332.295 278.918,333.962C279.831,335.63 280.722,337.514 281.59,339.615L289.059,357.086C289.744,358.823 290.2,360.09 290.429,360.889C290.657,361.689 290.771,362.318 290.771,362.774Z" style="fill:white;fill-rule:nonzero;"/>
        </g>
        <g transform="matrix(4.16667,0,0,4.16667,0,0)">
            <path d="M356.547,358.045C356.547,359.371 356.489,360.478 356.376,361.369C356.261,362.259 356.09,362.979 355.862,363.527C355.633,364.076 355.348,364.476 355.005,364.726C354.663,364.978 354.286,365.103 353.875,365.103L309.339,365.103C307.832,365.103 306.564,364.658 305.537,363.767C304.509,362.876 303.995,361.426 303.995,359.416L303.995,282.129C303.995,280.12 304.509,278.669 305.537,277.778C306.564,276.888 307.832,276.442 309.339,276.442L353.601,276.442C354.012,276.442 354.377,276.557 354.697,276.785C355.016,277.014 355.291,277.413 355.52,277.984C355.748,278.556 355.919,279.286 356.033,280.177C356.147,281.067 356.205,282.198 356.205,283.568C356.205,284.848 356.147,285.932 356.033,286.823C355.919,287.713 355.748,288.433 355.52,288.981C355.291,289.529 355.016,289.93 354.697,290.18C354.377,290.432 354.012,290.557 353.601,290.557L321.946,290.557L321.946,312.207L348.736,312.207C349.147,312.207 349.524,312.334 349.867,312.584C350.209,312.836 350.494,313.225 350.723,313.749C350.951,314.276 351.123,314.983 351.237,315.873C351.351,316.764 351.408,317.85 351.408,319.128C351.408,320.454 351.351,321.55 351.237,322.417C351.123,323.286 350.951,323.982 350.723,324.507C350.494,325.033 350.209,325.41 349.867,325.637C349.524,325.867 349.147,325.98 348.736,325.98L321.946,325.98L321.946,350.989L353.875,350.989C354.286,350.989 354.663,351.115 355.005,351.366C355.348,351.617 355.633,352.016 355.862,352.565C356.09,353.113 356.261,353.831 356.376,354.723C356.489,355.614 356.547,356.721 356.547,358.045Z" style="fill:white;fill-rule:nonzero;"/>
        </g>
        <g transform="matrix(4.16667,0,0,4.16667,0,0)">
            <path d="M390.532,362.636C390.532,363.093 390.383,363.504 390.086,363.87C389.789,364.236 389.298,364.533 388.613,364.76C387.928,364.99 387.014,365.171 385.873,365.308C384.73,365.446 383.269,365.514 381.487,365.514C379.751,365.514 378.301,365.446 377.137,365.308C375.972,365.171 375.047,364.99 374.361,364.76C373.676,364.533 373.185,364.236 372.889,363.87C372.591,363.504 372.443,363.093 372.443,362.636L372.443,278.909C372.443,278.453 372.591,278.042 372.889,277.676C373.185,277.31 373.687,277.014 374.396,276.785C375.104,276.557 376.028,276.374 377.171,276.237C378.312,276.1 379.751,276.031 381.487,276.031C383.269,276.031 384.73,276.1 385.873,276.237C387.014,276.374 387.928,276.557 388.613,276.785C389.298,277.014 389.789,277.31 390.086,277.676C390.383,278.042 390.532,278.453 390.532,278.909L390.532,362.636Z" style="fill:white;fill-rule:nonzero;"/>
        </g>
        <g transform="matrix(4.16667,0,0,4.16667,0,0)">
            <path d="M503.173,360.512C502.899,361.609 502.522,362.489 502.043,363.15C501.563,363.813 500.844,364.315 499.884,364.658C498.925,365 497.691,365.228 496.185,365.343C494.677,365.456 492.759,365.514 490.429,365.514C487.825,365.514 485.735,365.456 484.159,365.343C482.584,365.228 481.339,365 480.426,364.658C479.511,364.315 478.85,363.813 478.438,363.15C478.027,362.489 477.707,361.609 477.479,360.512L463.296,304.329L463.159,304.329L449.729,360.512C449.501,361.564 449.182,362.42 448.771,363.081C448.359,363.745 447.709,364.258 446.818,364.623C445.928,364.99 444.717,365.228 443.187,365.343C441.655,365.456 439.635,365.514 437.123,365.514C434.474,365.514 432.361,365.456 430.785,365.343C429.209,365.228 427.964,365 427.051,364.658C426.137,364.315 425.475,363.813 425.063,363.15C424.653,362.489 424.311,361.609 424.036,360.512L403.892,283.157C403.481,281.513 403.252,280.223 403.207,279.286C403.161,278.35 403.423,277.631 403.995,277.127C404.566,276.625 405.502,276.317 406.804,276.203C408.106,276.089 409.922,276.031 412.251,276.031C414.398,276.031 416.099,276.065 417.356,276.134C418.612,276.203 419.559,276.363 420.199,276.614C420.839,276.865 421.272,277.23 421.501,277.71C421.729,278.189 421.912,278.864 422.049,279.731L437.603,347.631L437.671,347.631L453.841,280.211C454.023,279.344 454.263,278.635 454.561,278.087C454.857,277.538 455.359,277.117 456.067,276.819C456.775,276.522 457.746,276.317 458.979,276.203C460.213,276.089 461.857,276.031 463.913,276.031C466.105,276.031 467.853,276.077 469.154,276.168C470.456,276.26 471.461,276.454 472.169,276.75C472.877,277.048 473.391,277.47 473.711,278.018C474.03,278.566 474.281,279.297 474.465,280.211L491.183,347.631L491.319,347.631L506.873,279.936C507.01,279.206 507.192,278.578 507.421,278.053C507.649,277.528 508.083,277.117 508.723,276.819C509.362,276.522 510.275,276.317 511.464,276.203C512.65,276.089 514.317,276.031 516.465,276.031C518.474,276.031 520.039,276.089 521.158,276.203C522.276,276.317 523.088,276.625 523.591,277.127C524.093,277.631 524.311,278.372 524.242,279.354C524.174,280.337 523.934,281.673 523.521,283.363L503.173,360.512Z" style="fill:white;fill-rule:nonzero;"/>
        </g>
        <g transform="matrix(4.16667,0,0,4.16667,0,0)">
            <path d="M589.572,358.045C589.572,359.371 589.515,360.478 589.401,361.369C589.287,362.259 589.115,362.979 588.888,363.527C588.658,364.076 588.373,364.476 588.031,364.726C587.688,364.978 587.312,365.103 586.9,365.103L542.364,365.103C540.857,365.103 539.59,364.658 538.562,363.767C537.534,362.876 537.021,361.426 537.021,359.416L537.021,282.129C537.021,280.12 537.534,278.669 538.562,277.778C539.59,276.888 540.857,276.442 542.364,276.442L586.626,276.442C587.037,276.442 587.402,276.557 587.723,276.785C588.042,277.014 588.315,277.413 588.545,277.984C588.772,278.556 588.944,279.286 589.059,280.177C589.172,281.067 589.229,282.198 589.229,283.568C589.229,284.848 589.172,285.932 589.059,286.823C588.944,287.713 588.772,288.433 588.545,288.981C588.315,289.529 588.042,289.93 587.723,290.18C587.402,290.432 587.037,290.557 586.626,290.557L554.972,290.557L554.972,312.207L581.762,312.207C582.173,312.207 582.55,312.334 582.893,312.584C583.234,312.836 583.52,313.225 583.749,313.749C583.977,314.276 584.148,314.983 584.263,315.873C584.376,316.764 584.434,317.85 584.434,319.128C584.434,320.454 584.376,321.55 584.263,322.417C584.148,323.286 583.977,323.982 583.749,324.507C583.52,325.033 583.234,325.41 582.893,325.637C582.55,325.867 582.173,325.98 581.762,325.98L554.972,325.98L554.972,350.989L586.9,350.989C587.312,350.989 587.688,351.115 588.031,351.366C588.373,351.617 588.658,352.016 588.888,352.565C589.115,353.113 589.287,353.831 589.401,354.723C589.515,355.614 589.572,356.721 589.572,358.045Z" style="fill:white;fill-rule:nonzero;"/>
        </g>
        <g transform="matrix(4.16667,0,0,4.16667,0,0)">
            <path d="M674.533,290.214C674.533,291.539 674.476,292.681 674.362,293.64C674.247,294.599 674.088,295.365 673.882,295.935C673.677,296.507 673.425,296.906 673.129,297.134C672.831,297.364 672.478,297.477 672.066,297.477C671.473,297.477 670.513,297.066 669.188,296.244C667.863,295.421 666.105,294.531 663.913,293.572C661.721,292.612 659.105,291.722 656.068,290.899C653.029,290.077 649.501,289.666 645.482,289.666C641.188,289.666 637.305,290.409 633.834,291.893C630.362,293.378 627.394,295.479 624.927,298.196C622.461,300.914 620.564,304.181 619.24,307.994C617.915,311.808 617.253,316.023 617.253,320.635C617.253,325.705 617.927,330.171 619.274,334.031C620.621,337.891 622.506,341.122 624.927,343.726C627.348,346.329 630.26,348.294 633.663,349.619C637.065,350.944 640.823,351.605 644.934,351.605C646.943,351.605 648.931,351.377 650.895,350.92C652.858,350.464 654.686,349.779 656.376,348.865L656.376,328.309L639.59,328.309C638.768,328.309 638.127,327.795 637.671,326.768C637.214,325.74 636.986,323.993 636.986,321.527C636.986,320.248 637.043,319.174 637.157,318.306C637.271,317.439 637.442,316.742 637.671,316.216C637.899,315.692 638.173,315.303 638.493,315.051C638.813,314.801 639.179,314.674 639.59,314.674L669.531,314.674C670.262,314.674 670.912,314.801 671.484,315.051C672.055,315.303 672.557,315.68 672.991,316.182C673.425,316.685 673.756,317.29 673.985,317.997C674.213,318.706 674.327,319.517 674.327,320.43L674.327,355.716C674.327,357.086 674.088,358.286 673.608,359.313C673.129,360.341 672.146,361.153 670.662,361.746C669.177,362.34 667.339,362.956 665.146,363.595C662.954,364.236 660.681,364.784 658.329,365.24C655.976,365.696 653.602,366.038 651.203,366.268C648.805,366.496 646.396,366.611 643.975,366.611C636.894,366.611 630.556,365.593 624.961,363.561C619.365,361.53 614.626,358.583 610.744,354.723C606.861,350.864 603.893,346.158 601.837,340.608C599.781,335.058 598.754,328.767 598.754,321.732C598.754,314.469 599.85,307.949 602.042,302.17C604.235,296.392 607.341,291.482 611.36,287.439C615.38,283.397 620.233,280.303 625.921,278.155C631.607,276.009 637.945,274.935 644.934,274.935C648.771,274.935 652.266,275.198 655.417,275.723C658.568,276.248 661.32,276.888 663.673,277.642C666.025,278.395 667.979,279.206 669.531,280.074C671.084,280.942 672.169,281.696 672.786,282.335C673.402,282.975 673.848,283.876 674.122,285.041C674.396,286.206 674.533,287.931 674.533,290.214Z" style="fill:white;fill-rule:nonzero;"/>
        </g>
        <g transform="matrix(4.16667,0,0,4.16667,0,0)">
            <path d="M165.188,396.502C165.188,399.551 165.853,401.834 167.183,403.351C168.513,404.868 170.187,405.626 172.204,405.626C174.207,405.626 175.873,404.864 177.203,403.339C178.533,401.816 179.198,399.492 179.198,396.369C179.198,393.424 178.529,391.194 177.191,389.677C175.854,388.161 174.191,387.402 172.204,387.402C170.187,387.402 168.513,388.157 167.183,389.665C165.853,391.175 165.188,393.454 165.188,396.502ZM161.041,396.502C161.041,392.094 162.266,388.829 164.717,386.707C166.764,384.944 169.26,384.062 172.204,384.062C175.477,384.062 178.152,385.134 180.229,387.279C182.306,389.423 183.345,392.386 183.345,396.166C183.345,399.23 182.885,401.64 181.966,403.396C181.047,405.152 179.709,406.515 177.954,407.487C176.198,408.457 174.281,408.944 172.204,408.944C168.872,408.944 166.178,407.875 164.123,405.738C162.068,403.601 161.041,400.523 161.041,396.502Z" style="fill:white;fill-rule:nonzero;"/>
        </g>
        <g transform="matrix(4.16667,0,0,4.16667,0,0)">
            <path d="M203.676,408.406L203.676,404.909C201.823,407.599 199.305,408.944 196.122,408.944C194.717,408.944 193.406,408.674 192.188,408.137C190.97,407.599 190.065,406.922 189.476,406.108C188.885,405.293 188.47,404.296 188.231,403.116C188.067,402.324 187.985,401.069 187.985,399.35L187.985,384.6L192.02,384.6L192.02,397.803C192.02,399.91 192.102,401.329 192.266,402.062C192.52,403.123 193.058,403.956 193.88,404.561C194.702,405.166 195.718,405.469 196.929,405.469C198.139,405.469 199.275,405.16 200.336,404.538C201.397,403.919 202.148,403.075 202.589,402.006C203.029,400.938 203.25,399.387 203.25,397.355L203.25,384.6L207.285,384.6L207.285,408.406L203.676,408.406Z" style="fill:white;fill-rule:nonzero;"/>
        </g>
        <g transform="matrix(4.16667,0,0,4.16667,0,0)">
            <path d="M222.416,404.796L222.999,408.361C221.863,408.6 220.847,408.719 219.95,408.719C218.485,408.719 217.35,408.488 216.543,408.025C215.736,407.562 215.167,406.953 214.839,406.198C214.51,405.443 214.346,403.855 214.346,401.434L214.346,387.738L211.387,387.738L211.387,384.6L214.346,384.6L214.346,378.704L218.358,376.284L218.358,384.6L222.416,384.6L222.416,387.738L218.358,387.738L218.358,401.659C218.358,402.809 218.429,403.549 218.571,403.877C218.713,404.206 218.945,404.468 219.266,404.663C219.587,404.857 220.047,404.954 220.645,404.954C221.093,404.954 221.684,404.902 222.416,404.796Z" style="fill:white;fill-rule:nonzero;"/>
        </g>
        <g transform="matrix(4.16667,0,0,4.16667,0,0)">
            <path d="M229.051,396.525C229.051,399.574 229.693,401.853 230.979,403.362C232.264,404.871 233.781,405.626 235.529,405.626C237.292,405.626 238.791,404.906 240.023,403.463C241.256,402.021 241.873,399.821 241.873,396.862C241.873,393.604 241.245,391.212 239.99,389.688C238.735,388.164 237.188,387.402 235.35,387.402C233.557,387.402 232.058,388.134 230.855,389.599C229.652,391.064 229.051,393.372 229.051,396.525ZM241.806,408.406L241.806,405.402C240.296,407.763 238.077,408.944 235.148,408.944C233.25,408.944 231.505,408.42 229.914,407.374C228.323,406.329 227.09,404.868 226.215,402.993C225.341,401.117 224.904,398.961 224.904,396.525C224.904,394.149 225.3,391.994 226.092,390.058C226.884,388.123 228.072,386.64 229.656,385.609C231.24,384.578 233.011,384.062 234.969,384.062C236.403,384.062 237.681,384.365 238.802,384.97C239.923,385.575 240.834,386.364 241.537,387.334L241.537,375.543L245.549,375.543L245.549,408.406L241.806,408.406Z" style="fill:white;fill-rule:nonzero;"/>
        </g>
        <g transform="matrix(4.16667,0,0,4.16667,0,0)">
            <path d="M254.538,396.502C254.538,399.551 255.203,401.834 256.532,403.351C257.863,404.868 259.536,405.626 261.553,405.626C263.557,405.626 265.223,404.864 266.553,403.339C267.883,401.816 268.548,399.492 268.548,396.369C268.548,393.424 267.879,391.194 266.542,389.677C265.204,388.161 263.542,387.402 261.553,387.402C259.536,387.402 257.863,388.157 256.532,389.665C255.203,391.175 254.538,393.454 254.538,396.502ZM250.391,396.502C250.391,392.094 251.616,388.829 254.067,386.707C256.114,384.944 258.609,384.062 261.553,384.062C264.827,384.062 267.502,385.134 269.579,387.279C271.656,389.423 272.695,392.386 272.695,396.166C272.695,399.23 272.235,401.64 271.316,403.396C270.397,405.152 269.06,406.515 267.304,407.487C265.548,408.457 263.631,408.944 261.553,408.944C258.221,408.944 255.528,407.875 253.473,405.738C251.418,403.601 250.391,400.523 250.391,396.502Z" style="fill:white;fill-rule:nonzero;"/>
        </g>
        <g transform="matrix(4.16667,0,0,4.16667,0,0)">
            <path d="M280.07,396.502C280.07,399.551 280.734,401.834 282.065,403.351C283.395,404.868 285.068,405.626 287.086,405.626C289.088,405.626 290.754,404.864 292.084,403.339C293.415,401.816 294.08,399.492 294.08,396.369C294.08,393.424 293.411,391.194 292.073,389.677C290.736,388.161 289.073,387.402 287.086,387.402C285.068,387.402 283.395,388.157 282.065,389.665C280.734,391.175 280.07,393.454 280.07,396.502ZM275.923,396.502C275.923,392.094 277.148,388.829 279.599,386.707C281.646,384.944 284.142,384.062 287.086,384.062C290.358,384.062 293.034,385.134 295.111,387.279C297.188,389.423 298.227,392.386 298.227,396.166C298.227,399.23 297.767,401.64 296.848,403.396C295.929,405.152 294.591,406.515 292.835,407.487C291.08,408.457 289.163,408.944 287.086,408.944C283.753,408.944 281.06,407.875 279.005,405.738C276.95,403.601 275.923,400.523 275.923,396.502Z" style="fill:white;fill-rule:nonzero;"/>
        </g>
        <g transform="matrix(4.16667,0,0,4.16667,0,0)">
            <path d="M302.912,408.406L302.912,384.6L306.543,384.6L306.543,388.208C307.47,386.52 308.326,385.407 309.11,384.869C309.895,384.33 310.758,384.062 311.699,384.062C313.059,384.062 314.441,384.496 315.846,385.362L314.456,389.106C313.47,388.523 312.483,388.231 311.498,388.231C310.615,388.231 309.823,388.496 309.121,389.027C308.418,389.558 307.918,390.293 307.619,391.235C307.171,392.669 306.947,394.239 306.947,395.943L306.947,408.406L302.912,408.406Z" style="fill:white;fill-rule:nonzero;"/>
        </g>
        <g transform="matrix(4.16667,0,0,4.16667,0,0)">
            <path d="M358.952,396.458C357.487,397.056 355.29,397.564 352.361,397.982C350.703,398.221 349.529,398.491 348.842,398.789C348.155,399.088 347.624,399.526 347.25,400.101C346.877,400.676 346.69,401.315 346.69,402.017C346.69,403.093 347.097,403.99 347.912,404.707C348.726,405.424 349.918,405.783 351.487,405.783C353.042,405.783 354.424,405.443 355.634,404.763C356.845,404.083 357.733,403.153 358.302,401.972C358.735,401.061 358.952,399.716 358.952,397.937L358.952,396.458ZM359.288,405.469C357.793,406.74 356.355,407.636 354.973,408.16C353.59,408.682 352.107,408.944 350.523,408.944C347.908,408.944 345.898,408.305 344.494,407.027C343.088,405.749 342.386,404.117 342.386,402.129C342.386,400.963 342.651,399.899 343.182,398.935C343.712,397.971 344.407,397.198 345.267,396.615C346.126,396.032 347.094,395.591 348.169,395.292C348.961,395.083 350.157,394.881 351.756,394.687C355.014,394.298 357.413,393.835 358.952,393.297C358.966,392.745 358.974,392.393 358.974,392.244C358.974,390.6 358.593,389.442 357.831,388.769C356.8,387.858 355.268,387.402 353.236,387.402C351.338,387.402 349.937,387.735 349.033,388.4C348.128,389.065 347.459,390.242 347.026,391.93L343.081,391.392C343.44,389.704 344.03,388.34 344.852,387.301C345.674,386.262 346.862,385.463 348.416,384.903C349.97,384.342 351.771,384.062 353.818,384.062C355.851,384.062 357.502,384.301 358.772,384.779C360.042,385.257 360.977,385.859 361.574,386.583C362.172,387.309 362.59,388.224 362.83,389.329C362.964,390.017 363.031,391.257 363.031,393.051L363.031,398.43C363.031,402.182 363.117,404.554 363.289,405.547C363.461,406.541 363.801,407.495 364.309,408.406L360.095,408.406C359.676,407.569 359.407,406.59 359.288,405.469Z" style="fill:white;fill-rule:nonzero;"/>
        </g>
        <g transform="matrix(4.16667,0,0,4.16667,0,0)">
            <path d="M384.82,399.686L388.788,400.202C388.354,402.936 387.244,405.077 385.458,406.623C383.673,408.17 381.48,408.944 378.879,408.944C375.622,408.944 373.002,407.879 371.022,405.749C369.042,403.62 368.053,400.568 368.053,396.592C368.053,394.022 368.479,391.773 369.33,389.845C370.182,387.917 371.479,386.472 373.219,385.507C374.96,384.543 376.854,384.062 378.902,384.062C381.487,384.062 383.602,384.716 385.246,386.023C386.889,387.331 387.943,389.188 388.406,391.594L384.483,392.199C384.11,390.6 383.449,389.397 382.5,388.59C381.55,387.783 380.404,387.379 379.059,387.379C377.026,387.379 375.375,388.108 374.105,389.565C372.834,391.022 372.2,393.328 372.2,396.48C372.2,399.678 372.812,402.002 374.038,403.452C375.263,404.902 376.862,405.626 378.834,405.626C380.418,405.626 381.741,405.141 382.802,404.169C383.863,403.198 384.536,401.704 384.82,399.686Z" style="fill:white;fill-rule:nonzero;"/>
        </g>
        <g transform="matrix(4.16667,0,0,4.16667,0,0)">
            <path d="M401.049,404.796L401.632,408.361C400.496,408.6 399.48,408.719 398.583,408.719C397.119,408.719 395.983,408.488 395.176,408.025C394.369,407.562 393.801,406.953 393.473,406.198C393.144,405.443 392.979,403.855 392.979,401.434L392.979,387.738L390.021,387.738L390.021,384.6L392.979,384.6L392.979,378.704L396.992,376.284L396.992,384.6L401.049,384.6L401.049,387.738L396.992,387.738L396.992,401.659C396.992,402.809 397.063,403.549 397.205,403.877C397.347,404.206 397.578,404.468 397.899,404.663C398.221,404.857 398.68,404.954 399.278,404.954C399.727,404.954 400.317,404.902 401.049,404.796Z" style="fill:white;fill-rule:nonzero;"/>
        </g>
        <g transform="matrix(4.16667,0,0,4.16667,0,0)">
            <path d="M405.017,408.406L405.017,384.6L409.052,384.6L409.052,408.406L405.017,408.406ZM405.017,380.184L405.017,375.543L409.052,375.543L409.052,380.184L405.017,380.184Z" style="fill:white;fill-rule:nonzero;"/>
        </g>
        <g transform="matrix(4.16667,0,0,4.16667,0,0)">
            <path d="M421.807,408.406L412.75,384.6L417.009,384.6L422.121,398.857C422.674,400.396 423.182,401.995 423.645,403.654C424.004,402.398 424.504,400.889 425.146,399.125L430.438,384.6L434.584,384.6L425.572,408.406L421.807,408.406Z" style="fill:white;fill-rule:nonzero;"/>
        </g>
        <g transform="matrix(4.16667,0,0,4.16667,0,0)">
            <path d="M438.17,408.406L438.17,384.6L442.204,384.6L442.204,408.406L438.17,408.406ZM438.17,380.184L438.17,375.543L442.204,375.543L442.204,380.184L438.17,380.184Z" style="fill:white;fill-rule:nonzero;"/>
        </g>
        <g transform="matrix(4.16667,0,0,4.16667,0,0)">
            <path d="M457.156,404.796L457.739,408.361C456.603,408.6 455.587,408.719 454.69,408.719C453.226,408.719 452.09,408.488 451.283,408.025C450.476,407.562 449.908,406.953 449.579,406.198C449.25,405.443 449.086,403.855 449.086,401.434L449.086,387.738L446.127,387.738L446.127,384.6L449.086,384.6L449.086,378.704L453.099,376.284L453.099,384.6L457.156,384.6L457.156,387.738L453.099,387.738L453.099,401.659C453.099,402.809 453.169,403.549 453.312,403.877C453.453,404.206 453.685,404.468 454.007,404.663C454.328,404.857 454.787,404.954 455.385,404.954C455.833,404.954 456.424,404.902 457.156,404.796Z" style="fill:white;fill-rule:nonzero;"/>
        </g>
        <g transform="matrix(4.16667,0,0,4.16667,0,0)">
            <path d="M460.922,417.574L460.474,413.786C461.355,414.025 462.125,414.144 462.782,414.144C463.679,414.144 464.396,413.995 464.935,413.696C465.473,413.397 465.913,412.979 466.257,412.441C466.511,412.038 466.922,411.036 467.49,409.437C467.564,409.212 467.684,408.884 467.849,408.451L458.814,384.6L463.164,384.6L468.117,398.386C468.76,400.134 469.335,401.972 469.844,403.9C470.307,402.047 470.859,400.239 471.502,398.475L476.591,384.6L480.626,384.6L471.569,408.809C470.598,411.424 469.844,413.225 469.306,414.211C468.588,415.541 467.767,416.516 466.84,417.137C465.913,417.756 464.808,418.067 463.522,418.067C462.745,418.067 461.878,417.903 460.922,417.574Z" style="fill:white;fill-rule:nonzero;"/>
        </g>
        <g transform="matrix(4.16667,0,0,4.16667,0,0)">
            <path d="M513.241,396.324C513.241,399.178 513.63,401.241 514.406,402.51C515.677,404.587 517.396,405.626 519.563,405.626C521.326,405.626 522.851,404.861 524.136,403.329C525.421,401.797 526.063,399.514 526.063,396.48C526.063,393.372 525.447,391.079 524.214,389.599C522.981,388.12 521.49,387.379 519.742,387.379C517.979,387.379 516.453,388.146 515.169,389.677C513.883,391.209 513.241,393.424 513.241,396.324ZM513.286,408.406L509.543,408.406L509.543,375.543L513.578,375.543L513.578,387.267C515.281,385.13 517.456,384.062 520.101,384.062C521.565,384.062 522.951,384.357 524.258,384.948C525.566,385.538 526.643,386.368 527.487,387.436C528.331,388.504 528.992,389.793 529.471,391.302C529.948,392.812 530.188,394.426 530.188,396.144C530.188,400.224 529.18,403.377 527.162,405.604C525.145,407.83 522.724,408.944 519.899,408.944C517.089,408.944 514.885,407.771 513.286,405.424L513.286,408.406Z" style="fill:white;fill-rule:nonzero;"/>
        </g>
        <g transform="matrix(4.16667,0,0,4.16667,0,0)">
            <rect x="535.007" y="375.543" width="4.035" height="32.863" style="fill:white;fill-rule:nonzero;"/>
        </g>
        <g transform="matrix(4.16667,0,0,4.16667,0,0)">
            <path d="M547.94,396.502C547.94,399.551 548.605,401.834 549.936,403.351C551.266,404.868 552.939,405.626 554.957,405.626C556.959,405.626 558.626,404.864 559.956,403.339C561.286,401.816 561.951,399.492 561.951,396.369C561.951,393.424 561.282,391.194 559.944,389.677C558.607,388.161 556.944,387.402 554.957,387.402C552.939,387.402 551.266,388.157 549.936,389.665C548.605,391.175 547.94,393.454 547.94,396.502ZM543.794,396.502C543.794,392.094 545.019,388.829 547.47,386.707C549.518,384.944 552.013,384.062 554.957,384.062C558.229,384.062 560.904,385.134 562.981,387.279C565.059,389.423 566.098,392.386 566.098,396.166C566.098,399.23 565.639,401.64 564.719,403.396C563.8,405.152 562.463,406.515 560.707,407.487C558.95,408.457 557.034,408.944 554.957,408.944C551.624,408.944 548.931,407.875 546.876,405.738C544.821,403.601 543.794,400.523 543.794,396.502Z" style="fill:white;fill-rule:nonzero;"/>
        </g>
        <g transform="matrix(4.16667,0,0,4.16667,0,0)">
            <path d="M573.428,396.077C573.428,399.201 574.048,401.479 575.289,402.913C576.529,404.348 578.083,405.066 579.951,405.066C581.804,405.066 583.358,404.352 584.613,402.925C585.869,401.498 586.497,399.26 586.497,396.211C586.497,393.297 585.851,391.101 584.558,389.621C583.265,388.142 581.707,387.402 579.884,387.402C578.091,387.402 576.566,388.13 575.312,389.587C574.056,391.044 573.428,393.207 573.428,396.077ZM570.088,410.378L574.011,410.961C574.175,412.171 574.631,413.053 575.378,413.606C576.379,414.353 577.747,414.727 579.48,414.727C581.349,414.727 582.79,414.353 583.807,413.606C584.823,412.859 585.511,411.813 585.869,410.468C586.078,409.646 586.175,407.92 586.16,405.289C584.396,407.368 582.2,408.406 579.57,408.406C576.298,408.406 573.765,407.225 571.971,404.864C570.178,402.503 569.281,399.671 569.281,396.369C569.281,394.097 569.692,392.001 570.514,390.08C571.336,388.161 572.527,386.677 574.09,385.631C575.65,384.585 577.485,384.062 579.593,384.062C582.402,384.062 584.718,385.198 586.542,387.469L586.542,384.6L590.263,384.6L590.263,405.178C590.263,408.884 589.885,411.51 589.131,413.057C588.376,414.604 587.181,415.826 585.544,416.722C583.907,417.619 581.894,418.067 579.503,418.067C576.663,418.067 574.37,417.428 572.621,416.151C570.873,414.872 570.028,412.949 570.088,410.378Z" style="fill:white;fill-rule:nonzero;"/>
        </g>
        <g transform="matrix(4.16667,0,0,4.16667,0,0)">
            <rect x="492.772" y="393.602" width="3.892" height="3.891" style="fill:white;fill-rule:nonzero;"/>
        </g>
        <g transform="matrix(4.16667,0,0,4.16667,0,0)">
            <rect x="328.364" y="393.602" width="3.892" height="3.891" style="fill:white;fill-rule:nonzero;"/>
        </g>
        <g transform="matrix(4.16667,0,0,4.16667,0,0)">
            <path d="M544.641,193.92L546.754,192.89L577.133,174.748L593.723,178.795C589.014,160.939 572.768,147.766 553.431,147.766C537.687,147.766 523.986,156.498 516.893,169.381L544.641,193.92Z" style="fill:rgb(244,210,44);fill-rule:nonzero;"/>
        </g>
        <g transform="matrix(4.16667,0,0,4.16667,0,0)">
            <path d="M137.75,260.725L240,182.225" style="fill:none;fill-rule:nonzero;"/>
        </g>
        <g transform="matrix(4.16667,0,0,4.16667,0,0)">
            <path d="M138.318,261.696C172.401,235.53 206.484,209.363 240.568,183.196C241.702,182.326 240.583,180.37 239.432,181.254C205.349,207.42 171.266,233.587 137.182,259.754C136.048,260.624 137.167,262.58 138.318,261.696Z" style="fill:white;fill-rule:nonzero;"/>
        </g>
        <g transform="matrix(4.16667,0,0,4.16667,0,0)">
            <path d="M240,182.225L270,213.225" style="fill:none;fill-rule:nonzero;"/>
        </g>
        <g transform="matrix(4.16667,0,0,4.16667,0,0)">
            <path d="M239.205,183.02C249.205,193.354 259.204,203.687 269.205,214.02C270.215,215.065 271.804,213.472 270.795,212.43C260.795,202.096 250.795,191.763 240.795,181.43C239.785,180.385 238.196,181.978 239.205,183.02Z" style="fill:white;fill-rule:nonzero;"/>
        </g>
        <g transform="matrix(4.16667,0,0,4.16667,0,0)">
            <path d="M270,213.225L364.25,167.225" style="fill:none;fill-rule:nonzero;"/>
        </g>
        <g transform="matrix(4.16667,0,0,4.16667,0,0)">
            <path d="M270.568,214.196C301.984,198.863 333.401,183.53 364.818,168.196C366.122,167.56 364.98,165.62 363.682,166.254C332.266,181.587 300.849,196.92 269.432,212.254C268.128,212.89 269.27,214.83 270.568,214.196Z" style="fill:white;fill-rule:nonzero;"/>
        </g>
        <g transform="matrix(4.16667,0,0,4.16667,0,0)">
            <path d="M364.25,167.225L408.25,179.475" style="fill:none;fill-rule:nonzero;"/>
        </g>
        <g transform="matrix(4.16667,0,0,4.16667,0,0)">
            <path d="M363.951,168.31C378.618,172.393 393.284,176.476 407.951,180.56C409.352,180.95 409.945,178.779 408.549,178.39C393.882,174.307 379.216,170.224 364.549,166.14C363.148,165.75 362.555,167.921 363.951,168.31Z" style="fill:white;fill-rule:nonzero;"/>
        </g>
        <g transform="matrix(4.16667,0,0,4.16667,0,0)">
            <path d="M387.299,174.56C398.222,170.208 409.146,165.857 420.068,161.506C428.172,158.278 436.124,154.133 444.777,152.829C458.284,150.794 471.79,148.759 485.297,146.724C487.428,146.403 485.129,145.941 485.913,146.638C487.135,147.724 488.356,148.81 489.578,149.896C494.379,154.165 499.181,158.435 503.982,162.704C517.224,174.476 530.464,186.248 543.704,198.02C544.785,198.981 546.382,197.395 545.296,196.43C526.994,180.158 508.692,163.886 490.392,147.614C489.091,146.458 487.442,144.141 485.539,144.428C480.036,145.257 474.534,146.086 469.031,146.915C461.417,148.062 453.803,149.21 446.189,150.357C443.515,150.76 440.707,150.876 438.184,151.882C421.022,158.718 403.862,165.554 386.701,172.39C385.37,172.92 385.95,175.097 387.299,174.56Z" style="fill:white;fill-rule:nonzero;"/>
        </g>
        <g transform="matrix(4.16667,0,0,4.16667,0,0)">
            <path d="M523.317,210.946C532.993,205.172 542.668,199.398 552.343,193.624C558.647,189.862 564.951,186.1 571.256,182.338C573.039,181.274 574.822,180.209 576.604,179.145C577.003,178.908 577.4,178.67 577.799,178.433C577.653,178.519 576.682,178.354 577.996,178.673C584.608,180.279 591.221,181.885 597.833,183.491C600.733,184.195 603.633,184.9 606.532,185.604C607.095,185.741 607.657,185.877 608.22,186.014C607.651,185.876 607.69,185.666 608.118,186.068C614.497,192.047 620.875,198.027 627.253,204.006C652.237,227.428 677.221,250.849 702.204,274.27C703.262,275.262 704.856,273.674 703.796,272.68C687.45,257.356 671.104,242.033 654.759,226.709C643.879,216.51 633,206.311 622.12,196.112C618.79,192.99 615.46,189.868 612.13,186.746C611.142,185.82 609.908,184.109 608.521,183.772C599.364,181.548 590.208,179.324 581.052,177.1C579.602,176.748 577.774,175.827 576.391,176.653C573.898,178.14 571.406,179.627 568.914,181.115C553.337,190.411 537.76,199.707 522.182,209.004C520.938,209.746 522.068,211.692 523.317,210.946Z" style="fill:white;fill-rule:nonzero;"/>
        </g>
        <g transform="matrix(4.16667,0,0,4.16667,0,0)">
            <path d="M272,217.475L288.75,240.975" style="fill:none;fill-rule:nonzero;"/>
        </g>
        <g transform="matrix(4.16667,0,0,4.16667,0,0)">
            <path d="M271.029,218.043C276.612,225.876 282.195,233.709 287.779,241.543C288.613,242.713 290.565,241.592 289.721,240.407C284.138,232.574 278.555,224.741 272.971,216.907C272.137,215.737 270.185,216.858 271.029,218.043Z" style="fill:white;fill-rule:nonzero;"/>
        </g>
        <g transform="matrix(4.16667,0,0,4.16667,0,0)">
            <path d="M261.752,208.025L239.753,185.711L205.502,211.839L231.053,205.261" style="fill:white;fill-rule:nonzero;"/>
        </g>
        <g transform="matrix(4.16667,0,0,4.16667,0,0)">
            <path d="M536.231,193.198C536.231,193.198 517.464,198.263 462.984,206.885C384.943,219.235 504.089,209.465 509.76,219.601C514.948,228.874 411.515,253.222 411.88,253.558C395.21,257.717 376.367,253.33 382.14,251.587C387.913,249.845 505.58,229.088 498.209,221.188C490.838,213.288 383.255,219.16 434.306,209.622C486.775,199.819 487.205,199.729 473.592,202.343L533.616,191.223L536.231,193.198Z" style="fill:rgb(190,215,59);fill-rule:nonzero;"/>
        </g>
        <g transform="matrix(4.16667,0,0,4.16667,0,0)">
            <path d="M431.884,157.44L487.326,159.495L504.667,164.725L485.621,147.647L440.655,154.608" style="fill:white;fill-rule:nonzero;"/>
        </g>
        <g transform="matrix(4.16667,0,0,4.16667,0,0)">
            <path d="M388.954,176.664L364.366,169.851L343.219,180.103" style="fill:white;fill-rule:nonzero;"/>
        </g>
        <g transform="matrix(4.16667,0,0,4.16667,0,0)">
            <path d="M551.767,195.503L612.387,191.212L607.548,187.013L577.786,179.983" style="fill:white;fill-rule:nonzero;"/>
        </g>
    </g>
</svg>
