<?xml version="1.0" encoding="UTF-8" standalone="no"?>
<!DOCTYPE svg PUBLIC "-//W3C//DTD SVG 1.1//EN" "http://www.w3.org/Graphics/SVG/1.1/DTD/svg11.dtd">
<svg width="100%" height="100%" viewBox="0 0 544 532" version="1.1" xmlns="http://www.w3.org/2000/svg" xmlns:xlink="http://www.w3.org/1999/xlink" xml:space="preserve" xmlns:serif="http://www.serif.com/" style="fill-rule:evenodd;clip-rule:evenodd;stroke-linejoin:round;stroke-miterlimit:1.41421;">
    <g transform="matrix(4.16667,0,0,4.16667,0,-2.24411)">
        <path d="M26.588,83.391C25.317,81.69 24.008,79.166 23.638,78.558C21.21,74.563 22.908,69.174 18.902,63.347C16.9,60.434 13.762,57.812 10.221,55.992L35.158,30.552C39.666,34.155 38.584,36.725 43.787,37.439C57.111,36.633 59.25,35.703 64.522,41.512C67.956,50.006 89.164,64.367 93.097,71.32C96.505,76.408 88.478,85.324 83.082,84.039C82.949,88.174 79.068,93.836 72.406,93.929C72.582,99.029 68.423,102.493 62.881,102.105C62.797,104.13 57.729,109.81 52.863,107.925C49.953,105.672 47.307,103.558 44.902,101.568L42.282,104.105C43.852,116.661 34.293,128 21.224,128C9.501,128 0,118.497 0,106.776C0,93.758 11.286,83.984 24.149,85.752L26.588,83.391ZM20.741,111.568C18.361,111.568 16.432,109.64 16.432,107.259C16.432,104.879 18.361,102.949 20.741,102.949C23.122,102.949 25.051,104.879 25.051,107.259C25.051,109.64 23.122,111.568 20.741,111.568ZM79.384,32.182C72.401,8.421 93.488,-5.533 113.689,3.121L98.875,17.485C89.264,26.688 103.015,40.86 112.504,31.66L127.377,17.238C137.557,35.071 120.13,60.223 96.759,51.27L88.066,59.684C81.693,53.915 73.478,47.182 69.475,41.775L79.384,32.182Z" style="fill:rgb(0,117,96);"/>
    </g>
</svg>
