<?xml version="1.0" encoding="UTF-8" standalone="no"?>
<!DOCTYPE svg PUBLIC "-//W3C//DTD SVG 1.1//EN" "http://www.w3.org/Graphics/SVG/1.1/DTD/svg11.dtd">
<svg width="100%" height="100%" viewBox="0 0 3028 2263" version="1.1" xmlns="http://www.w3.org/2000/svg" xmlns:xlink="http://www.w3.org/1999/xlink" xml:space="preserve" xmlns:serif="http://www.serif.com/" style="fill-rule:evenodd;clip-rule:evenodd;stroke-linejoin:round;stroke-miterlimit:1.41421;">
    <g transform="matrix(1,0,0,1,-1143.83,-1277.65)">
        <g transform="matrix(4.16667,0,0,4.16667,0,0)">
            <path d="M819.606,525.709C819.521,525.704 819.447,525.719 819.368,525.731C818.444,525.807 817.549,525.949 816.675,526.15C816.558,526.167 816.429,526.19 816.31,526.217C815.416,526.439 814.551,526.723 813.711,527.083C813.51,527.159 813.314,527.268 813.108,527.361C812.495,527.66 811.909,527.976 811.327,528.338C811.088,528.482 810.848,528.635 810.617,528.802C809.918,529.289 809.255,529.823 808.642,530.431C808.623,530.45 808.587,530.467 808.57,530.482L803.245,535.805C797.45,541.603 797,551.04 801.004,560.134C791.938,556.102 782.487,556.566 776.703,562.347L771.379,567.67C765.605,573.445 765.145,582.895 769.168,591.972C760.076,587.963 750.645,588.409 744.844,594.205L739.527,599.529C739.497,599.556 739.487,599.586 739.472,599.6C738.859,600.222 738.325,600.885 737.831,601.582C737.667,601.811 737.518,602.056 737.371,602.297C737.01,602.869 736.69,603.463 736.403,604.068C736.31,604.276 736.202,604.468 736.117,604.676C735.761,605.514 735.478,606.378 735.252,607.277C735.23,607.398 735.203,607.522 735.178,607.647C734.981,608.519 734.84,609.418 734.765,610.333C734.749,610.415 734.746,610.481 734.743,610.569C734.358,615.398 735.581,620.745 738.265,625.868L689.538,577.134L686.234,573.86L681.574,569.174C672.918,560.522 661.057,557.828 652.444,561.829C652.312,561.882 652.185,561.954 652.063,562.019C651.393,562.352 650.74,562.723 650.116,563.13C649.897,563.279 649.674,563.42 649.465,563.582C648.77,564.089 648.096,564.629 647.481,565.245C647.446,565.26 647.418,565.283 647.399,565.305L642.024,570.678C642.006,570.699 641.984,570.726 641.964,570.762C641.343,571.381 640.794,572.063 640.3,572.748C640.136,572.955 639.997,573.184 639.848,573.402C639.441,574.022 639.071,574.677 638.741,575.342C638.673,575.468 638.604,575.593 638.542,575.729C634.557,584.337 637.23,596.205 645.889,604.863L650.569,609.528L653.849,612.824L756.26,715.232L726.181,713.68L721.055,713.548L713.78,713.326C700.28,712.933 688.737,719.967 684.84,729.998C684.778,730.145 684.736,730.304 684.684,730.451C684.391,731.251 684.147,732.065 683.961,732.887C683.901,733.175 683.825,733.475 683.775,733.77C683.601,734.723 683.477,735.701 683.44,736.685C683.429,736.734 683.422,736.767 683.422,736.804L683.767,742.531C683.767,742.567 683.762,742.603 683.772,742.646C683.748,743.642 683.819,744.623 683.941,745.584C683.973,745.883 684.028,746.171 684.073,746.476C684.224,747.305 684.413,748.133 684.657,748.944C684.7,749.097 684.731,749.256 684.784,749.413C688.102,759.629 699.217,767.333 712.719,767.715L719.997,767.91L725.125,768.075L742.647,769.218C742.674,769.225 742.696,769.235 742.723,769.241L758.965,769.766L786.392,770.68C786.722,770.693 787.042,770.674 787.374,770.674L835.163,773.933C842.348,774.117 848.235,771.087 852.969,766.407C853.078,766.305 853.2,766.25 853.296,766.152L947.168,672.281C956.165,663.29 954.205,646.737 942.796,635.327L849.246,541.13L844.173,536.083C836.782,528.685 827.497,525.079 819.606,525.709Z" style="fill:rgb(167,171,177);fill-rule:nonzero;"/>
        </g>
        <g transform="matrix(4.16667,0,0,4.16667,0,0)">
            <path d="M990.917,685.45C979.369,673.899 962.6,671.891 953.487,681.003L858.592,775.916C849.464,785.016 851.476,801.792 863.039,813.351C874.59,824.9 891.344,826.889 900.464,817.751L995.355,722.872C1004.46,713.75 1002.48,696.999 990.917,685.45Z" style="fill:rgb(167,171,177);fill-rule:nonzero;"/>
        </g>
        <g transform="matrix(4.16667,0,0,4.16667,0,0)">
            <path d="M284.662,668.558C273.11,680.111 271.125,696.86 280.263,705.981L387.634,813.591C387.731,813.602 387.823,813.632 387.92,813.639L387.92,729.923L322.098,664.114C312.995,654.986 296.219,656.996 284.662,668.558Z" style="fill:rgb(167,171,177);fill-rule:nonzero;"/>
        </g>
        <g transform="matrix(4.16667,0,0,4.16667,0,0)">
            <path d="M387.908,548.742L411.839,539.013L440.729,527.268L445.639,525.285L452.617,522.506C465.565,517.312 473.587,505.881 473.156,494.804C473.15,494.635 473.123,494.471 473.113,494.304C473.061,493.431 472.949,492.565 472.791,491.703C472.731,491.399 472.681,491.093 472.609,490.8C472.375,489.824 472.102,488.843 471.719,487.887C471.717,487.841 471.705,487.807 471.69,487.77L468.376,479.503C468.362,479.466 468.346,479.438 468.312,479.401C467.927,478.447 467.459,477.554 466.954,476.692C466.794,476.425 466.616,476.159 466.454,475.902C465.982,475.172 465.456,474.469 464.889,473.799C464.785,473.674 464.685,473.537 464.576,473.412C457.229,465.095 443.536,462.395 430.595,467.581L423.627,470.394L418.708,472.35L411.839,475.142L344.279,502.607C332.417,507.385 324.681,517.41 323.832,527.599C323.812,527.67 323.78,527.741 323.76,527.813L320.268,636.532C320.072,643.948 323.204,650.027 328.035,654.918C328.136,655.024 328.199,655.153 328.299,655.247L387.92,714.868L387.92,640.998C387.92,640.858 387.898,640.718 387.898,640.575L387.908,548.742Z" style="fill:rgb(167,171,177);fill-rule:nonzero;"/>
        </g>
    </g>
    <g>
        <g transform="matrix(4.16667,0,0,4.16667,-1143.83,-1277.65)">
            <path d="M747.053,306.637L706.676,306.637C700.272,306.637 694.964,313.458 693.846,322.439L759.879,322.439C758.764,313.458 753.457,306.637 747.053,306.637Z" style="fill:rgb(0,117,96);fill-rule:nonzero;"/>
        </g>
        <g transform="matrix(4.16667,0,0,4.16667,-1143.83,-1277.65)">
            <path d="M524.109,715.405C534.082,715.405 542.16,707.318 542.16,697.354L542.16,648.702L506.103,648.702L506.103,697.354C506.103,707.318 514.164,715.405 524.109,715.405Z" style="fill:rgb(0,117,96);fill-rule:nonzero;"/>
        </g>
        <g transform="matrix(4.16667,0,0,4.16667,-1143.83,-1277.65)">
            <path d="M583.833,568L616.068,568C616.369,567.241 616.681,566.485 617.027,565.742C617.186,565.401 617.376,565.008 617.568,564.627C618.298,563.171 619.153,561.679 620.064,560.314C620.539,559.604 620.966,558.979 621.418,558.388C622.613,556.762 623.847,555.326 625.194,553.983L630.6,548.544C632.077,547.101 633.579,545.815 635.295,544.552C635.956,544.06 636.644,543.576 637.342,543.142C638.571,542.341 639.875,541.592 641.204,540.931C641.708,540.657 642.379,540.329 643.202,539.977C648.741,537.538 654.731,536.294 661.01,536.294C663.345,536.294 665.682,536.482 668.007,536.826L668.007,531.926L583.833,531.926L583.833,568Z" style="fill:rgb(0,117,96);fill-rule:nonzero;"/>
        </g>
        <g transform="matrix(4.16667,0,0,4.16667,-1143.83,-1277.65)">
            <path d="M524.109,422.052C514.164,422.052 506.103,430.143 506.103,440.093L506.103,588.58L542.16,588.58L542.16,440.093C542.16,430.143 534.082,422.052 524.109,422.052Z" style="fill:rgb(0,117,96);fill-rule:nonzero;"/>
        </g>
        <g transform="matrix(4.16667,0,0,4.16667,-1143.83,-1277.65)">
            <path d="M414.873,448.349L421.695,445.579C428.965,442.676 436.455,441.208 444.012,441.208C445.632,441.208 447.234,441.291 448.824,441.428L448.824,370.143L803.465,370.143L803.465,505.698C803.858,505.514 804.249,505.326 804.661,505.159C806.545,504.358 808.553,503.696 810.62,503.193C811.061,503.084 811.555,502.971 812.055,502.881C813.78,502.511 815.544,502.249 817.313,502.089C817.373,502.089 817.654,502.059 817.704,502.059C818.919,501.959 820.152,501.909 821.392,501.909C828.679,501.909 836.051,503.62 843.006,506.791L843.006,351.944C843.006,340.171 833.438,330.601 821.665,330.601L430.627,330.601C418.854,330.601 409.286,340.171 409.286,351.944L409.286,450.564L409.765,450.369L414.873,448.349Z" style="fill:rgb(0,117,96);fill-rule:nonzero;"/>
        </g>
        <g transform="matrix(4.16667,0,0,4.16667,-1143.83,-1277.65)">
            <rect x="482.052" y="600.599" width="84.173" height="36.07" style="fill:rgb(0,117,96);"/>
        </g>
        <g transform="matrix(4.16667,0,0,4.16667,-1143.83,-1277.65)">
            <path d="M626.741,828.305C613.639,828.305 603.023,817.669 603.023,804.575C603.023,791.472 613.639,780.845 626.741,780.845C639.848,780.845 650.471,791.472 650.471,804.575C650.471,817.669 639.848,828.305 626.741,828.305ZM786.64,794.407C786.198,794.407 785.756,794.392 785.317,794.373L758.175,793.474L741.958,792.949C741.7,792.937 741.358,792.908 741.099,792.891L724.023,791.774L719.254,791.625L712.071,791.433C689.845,790.802 670.606,778.082 663.208,759.472L448.824,759.472L448.824,672.428L448.824,549.583L409.286,565.543L409.286,828.198C409.286,839.968 418.854,849.539 430.627,849.539L821.665,849.539C833.438,849.539 843.006,839.968 843.006,828.198L843.006,826.604C835.723,818.068 831.082,807.821 829.653,797.339L786.64,794.407Z" style="fill:rgb(0,117,96);fill-rule:nonzero;"/>
        </g>
        <g transform="matrix(4.16667,0,0,4.16667,-1143.83,-1277.65)">
            <path d="M727.681,422.052C717.719,422.052 709.639,430.143 709.639,440.093L709.639,461.408L745.7,461.408L745.7,440.093C745.7,430.143 737.631,422.052 727.681,422.052Z" style="fill:rgb(0,117,96);fill-rule:nonzero;"/>
        </g>
        <g transform="matrix(4.16667,0,0,4.16667,-1143.83,-1277.65)">
            <path d="M625.889,422.052C615.946,422.052 607.886,430.143 607.886,440.093L607.886,519.907L643.939,519.907L643.939,440.093C643.939,430.143 635.864,422.052 625.889,422.052Z" style="fill:rgb(0,117,96);fill-rule:nonzero;"/>
        </g>
        <g transform="matrix(4.16667,0,0,4.16667,-1143.83,-1277.65)">
            <path d="M725.729,579.78L728.064,577.431C732.692,572.817 738.357,569.454 744.631,567.529C744.944,566.506 745.309,565.505 745.7,564.514L745.7,521.544L709.639,521.544L709.639,563.681L725.729,579.78Z" style="fill:rgb(0,117,96);fill-rule:nonzero;"/>
        </g>
        <g transform="matrix(4.16667,0,0,4.16667,-1143.83,-1277.65)">
            <rect x="685.616" y="473.454" width="84.162" height="36.053" style="fill:rgb(0,117,96);"/>
        </g>
        <g transform="matrix(4.16667,0,0,4.16667,-1143.83,-1277.65)">
            <path d="M625.889,715.405C635.864,715.405 643.939,707.318 643.939,697.354L643.939,636.471L637.071,629.606L633.741,626.251L629.135,621.659C617.523,610.043 611.877,594.574 613.217,580.03L607.886,580.03L607.886,697.354C607.886,707.318 615.946,715.405 625.889,715.405Z" style="fill:rgb(0,117,96);fill-rule:nonzero;"/>
        </g>
    </g>
</svg>
