<?xml version="1.0" encoding="UTF-8" standalone="no"?>
<!DOCTYPE svg PUBLIC "-//W3C//DTD SVG 1.1//EN" "http://www.w3.org/Graphics/SVG/1.1/DTD/svg11.dtd">
<svg width="100%" height="100%" viewBox="0 0 116 194" version="1.1" xmlns="http://www.w3.org/2000/svg" xmlns:xlink="http://www.w3.org/1999/xlink" xml:space="preserve" xmlns:serif="http://www.serif.com/" style="fill-rule:evenodd;clip-rule:evenodd;stroke-linejoin:round;stroke-miterlimit:1.41421;">
    <g transform="matrix(4.16667,0,0,4.16667,-1908.84,-1456.26)">
        <path d="M482.492,369.945C482.484,369.957 482.477,369.971 482.469,369.984C480.629,372.83 478.717,375.902 478.717,380.102C478.709,381.822 477.936,382.85 477.119,383.541C476.711,383.881 476.295,384.117 475.986,384.266C475.834,384.34 475.705,384.391 475.621,384.424C475.615,384.424 475.611,384.428 475.605,384.43L472.033,384.43L468.457,384.43C468.193,384.33 467.459,384.014 466.793,383.408C466.035,382.713 465.354,381.719 465.348,380.102C465.348,375.904 463.438,372.834 461.598,369.988C461.59,369.973 461.582,369.959 461.572,369.945C460.387,368.051 459.701,365.814 459.699,363.414C459.701,360.006 461.078,356.928 463.311,354.693C465.547,352.461 468.623,351.082 472.033,351.082C475.439,351.082 478.518,352.461 480.752,354.693C482.984,356.928 484.365,360.006 484.365,363.414C484.365,365.814 483.678,368.051 482.492,369.945ZM485.943,363.414C485.943,355.73 479.715,349.504 472.033,349.502C464.35,349.504 458.121,355.73 458.121,363.414C458.121,366.098 458.887,368.609 460.205,370.734C460.215,370.754 460.227,370.775 460.238,370.793C462.092,373.658 463.768,376.391 463.768,380.102C463.762,382.35 464.869,383.881 465.936,384.756C467.006,385.641 468.035,385.951 468.094,385.973C468.172,385.996 468.242,386.008 468.324,386.008L475.74,386.008C475.822,386.008 475.893,385.996 475.971,385.973C476.029,385.951 477.059,385.641 478.129,384.756C479.195,383.881 480.305,382.35 480.297,380.102C480.297,376.391 481.973,373.658 483.826,370.793C483.838,370.773 483.852,370.752 483.863,370.73C485.18,368.605 485.943,366.096 485.943,363.414Z" style="fill:rgb(0,117,96);fill-rule:nonzero;"/>
        <path d="M476.75,386.688L467.314,386.688C466.77,386.688 466.328,387.129 466.328,387.672L466.328,387.953C466.328,388.5 466.77,388.941 467.314,388.941L476.75,388.941C477.295,388.941 477.736,388.5 477.736,387.953L477.736,387.672C477.736,387.129 477.295,386.688 476.75,386.688Z" style="fill:rgb(0,117,96);fill-rule:nonzero;"/>
        <path d="M476.75,389.965L467.314,389.965C466.77,389.965 466.328,390.406 466.328,390.951L466.328,391.232C466.328,391.777 466.77,392.219 467.314,392.219L476.75,392.219C477.295,392.219 477.736,391.777 477.736,391.232L477.736,390.951C477.736,390.406 477.295,389.965 476.75,389.965Z" style="fill:rgb(0,117,96);fill-rule:nonzero;"/>
        <path d="M472.033,395.84C473.658,395.84 475.021,394.727 475.41,393.221L468.654,393.221C469.043,394.727 470.406,395.84 472.033,395.84Z" style="fill:rgb(0,117,96);fill-rule:nonzero;"/>
        <path d="M465.668,362.559C465.664,362.561 465.705,362.748 465.791,362.949C465.877,363.154 466,363.4 466.121,363.629C466.148,363.676 466.174,363.725 466.199,363.77C466.346,363.502 466.502,363.201 466.605,362.949C466.695,362.748 466.734,362.561 466.729,362.559C466.727,362.266 466.492,362.029 466.199,362.029C465.906,362.029 465.67,362.266 465.668,362.559ZM465.781,365.006C465.775,364.994 465.197,364.084 464.881,363.326C464.777,363.064 464.689,362.84 464.684,362.559C464.684,361.721 465.361,361.043 466.199,361.041C467.037,361.043 467.715,361.721 467.715,362.559C467.709,362.84 467.621,363.064 467.518,363.326C467.412,363.582 467.277,363.848 467.145,364.096C466.881,364.588 466.619,365 466.615,365.006L466.199,365.668L465.781,365.006Z" style="fill:rgb(0,117,96);fill-rule:nonzero;"/>
        <path d="M468.586,362.559C468.58,362.561 468.619,362.748 468.707,362.949C468.795,363.156 468.916,363.4 469.039,363.629C469.064,363.676 469.09,363.723 469.115,363.77C469.264,363.502 469.42,363.199 469.523,362.949C469.611,362.748 469.652,362.561 469.645,362.559C469.645,362.266 469.408,362.029 469.115,362.027C468.822,362.029 468.586,362.266 468.586,362.559ZM468.699,365.006C468.691,364.994 468.113,364.084 467.797,363.326C467.693,363.064 467.605,362.84 467.6,362.559C467.6,361.721 468.277,361.041 469.115,361.041C469.953,361.041 470.631,361.721 470.631,362.559C470.625,362.84 470.537,363.064 470.436,363.326C470.328,363.582 470.193,363.848 470.063,364.096C469.797,364.588 469.537,365 469.533,365.006L469.115,365.668L468.699,365.006Z" style="fill:rgb(0,117,96);fill-rule:nonzero;"/>
        <path d="M471.502,362.559C471.496,362.561 471.537,362.748 471.625,362.949C471.711,363.154 471.832,363.4 471.955,363.629C471.98,363.676 472.006,363.725 472.031,363.77C472.18,363.502 472.336,363.201 472.439,362.949C472.527,362.748 472.568,362.561 472.563,362.559C472.561,362.266 472.324,362.029 472.033,362.027C471.74,362.029 471.504,362.266 471.502,362.559ZM471.615,365.006C471.609,364.994 471.029,364.084 470.713,363.326C470.609,363.064 470.521,362.84 470.516,362.559C470.518,361.721 471.195,361.043 472.033,361.041C472.869,361.043 473.549,361.721 473.549,362.559C473.543,362.84 473.455,363.064 473.352,363.326C473.246,363.582 473.111,363.848 472.979,364.096C472.713,364.588 472.453,365 472.449,365.006L472.031,365.668L471.615,365.006Z" style="fill:rgb(0,117,96);fill-rule:nonzero;"/>
        <path d="M474.42,362.559C474.414,362.561 474.453,362.748 474.541,362.949C474.627,363.156 474.748,363.4 474.871,363.629C474.898,363.676 474.924,363.725 474.949,363.77C475.098,363.502 475.252,363.199 475.355,362.949C475.443,362.748 475.484,362.561 475.479,362.559C475.479,362.266 475.24,362.029 474.949,362.027C474.656,362.029 474.42,362.266 474.42,362.559ZM474.531,365.006C474.525,364.994 473.947,364.084 473.629,363.326C473.527,363.064 473.439,362.84 473.432,362.559C473.432,361.721 474.111,361.041 474.949,361.041C475.787,361.041 476.465,361.721 476.465,362.559C476.459,362.84 476.371,363.064 476.268,363.326C476.16,363.582 476.027,363.848 475.895,364.096C475.629,364.588 475.369,365 475.365,365.006L474.949,365.668L474.531,365.006Z" style="fill:rgb(0,117,96);fill-rule:nonzero;"/>
        <path d="M477.336,362.559C477.33,362.561 477.369,362.748 477.457,362.949C477.543,363.154 477.666,363.4 477.789,363.629C477.814,363.676 477.84,363.725 477.865,363.77C478.014,363.502 478.17,363.201 478.273,362.949C478.361,362.748 478.4,362.561 478.395,362.559C478.395,362.266 478.158,362.029 477.865,362.029C477.572,362.029 477.336,362.266 477.336,362.559ZM477.449,365.006C477.443,364.994 476.863,364.084 476.547,363.326C476.443,363.064 476.355,362.84 476.35,362.559C476.35,361.721 477.029,361.043 477.865,361.041C478.703,361.043 479.381,361.721 479.381,362.559C479.375,362.84 479.287,363.064 479.184,363.326C479.078,363.582 478.943,363.848 478.811,364.096C478.547,364.588 478.287,365 478.283,365.006L477.865,365.668L477.449,365.006Z" style="fill:rgb(0,117,96);fill-rule:nonzero;"/>
        <path d="M466.811,366.563C466.6,366.357 466.424,366.117 466.27,365.881C465.965,365.41 465.758,364.961 465.752,364.949L466.646,364.535C466.646,364.535 466.668,364.58 466.709,364.664C466.75,364.746 466.811,364.861 466.885,364.992C467.031,365.254 467.236,365.574 467.426,365.781C467.535,365.906 467.646,365.979 467.672,365.988C467.674,365.988 467.676,365.988 467.678,365.988L467.656,366.053L467.656,365.988L467.656,366.973C467.268,366.963 467.02,366.758 466.811,366.563Z" style="fill:rgb(0,117,96);fill-rule:nonzero;"/>
        <path d="M467.656,365.988L467.656,366.072L467.639,365.988L467.646,365.984C467.66,365.98 467.691,365.961 467.73,365.932C467.809,365.871 467.914,365.76 468.016,365.627C468.223,365.363 468.422,365.014 468.543,364.785C468.623,364.631 468.668,364.535 468.668,364.535L469.563,364.949C469.545,364.973 469.111,365.957 468.504,366.563C468.295,366.758 468.047,366.963 467.656,366.973L467.656,365.988Z" style="fill:rgb(0,117,96);fill-rule:nonzero;"/>
        <path d="M469.727,366.563C469.518,366.357 469.34,366.115 469.188,365.881C468.881,365.41 468.674,364.961 468.668,364.951L469.563,364.535C469.563,364.535 469.584,364.58 469.625,364.664C469.668,364.746 469.729,364.863 469.803,364.994C469.949,365.254 470.154,365.574 470.342,365.779C470.455,365.91 470.568,365.982 470.59,365.988L470.594,365.988L470.574,366.053L470.574,365.988L470.574,366.973C470.184,366.963 469.936,366.758 469.727,366.563Z" style="fill:rgb(0,117,96);fill-rule:nonzero;"/>
        <path d="M470.574,365.986L470.574,366.072L470.555,365.988L470.563,365.984C470.576,365.979 470.609,365.961 470.646,365.932C470.725,365.871 470.83,365.76 470.934,365.627C471.139,365.363 471.34,365.014 471.459,364.785C471.541,364.631 471.584,364.535 471.584,364.535L472.479,364.951C472.463,364.973 472.029,365.957 471.422,366.563C471.211,366.758 470.965,366.963 470.574,366.973L470.574,365.986Z" style="fill:rgb(0,117,96);fill-rule:nonzero;"/>
        <path d="M472.643,366.563C472.434,366.357 472.256,366.117 472.104,365.881C471.797,365.41 471.59,364.961 471.584,364.949L472.48,364.535C472.48,364.535 472.5,364.58 472.541,364.664C472.584,364.746 472.645,364.861 472.719,364.992C472.865,365.254 473.07,365.574 473.258,365.781C473.369,365.906 473.48,365.979 473.504,365.988C473.508,365.988 473.51,365.988 473.51,365.988L473.49,366.053L473.49,365.988L473.49,366.973C473.1,366.963 472.854,366.758 472.643,366.563Z" style="fill:rgb(0,117,96);fill-rule:nonzero;"/>
        <path d="M473.49,365.986L473.49,366.072L473.471,365.988C473.471,365.988 473.473,365.988 473.48,365.984C473.494,365.979 473.525,365.961 473.563,365.932C473.643,365.871 473.748,365.76 473.85,365.627C474.057,365.363 474.256,365.014 474.377,364.785C474.457,364.631 474.502,364.535 474.502,364.535L475.396,364.951C475.379,364.973 474.945,365.957 474.338,366.563C474.127,366.758 473.881,366.963 473.49,366.973L473.49,365.986Z" style="fill:rgb(0,117,96);fill-rule:nonzero;"/>
        <path d="M475.561,366.563C475.35,366.357 475.174,366.117 475.02,365.881C474.715,365.41 474.508,364.961 474.502,364.949L475.396,364.535C475.396,364.535 475.418,364.58 475.459,364.664C475.502,364.746 475.561,364.861 475.635,364.992C475.781,365.254 475.986,365.574 476.176,365.781C476.285,365.906 476.396,365.979 476.422,365.988C476.424,365.988 476.426,365.988 476.428,365.988L476.408,366.055L476.408,365.988L476.408,366.973C476.016,366.961 475.77,366.758 475.561,366.563Z" style="fill:rgb(0,117,96);fill-rule:nonzero;"/>
        <path d="M476.408,365.988L476.408,366.072L476.387,365.988C476.387,365.988 476.389,365.988 476.396,365.984C476.41,365.98 476.441,365.961 476.48,365.932C476.559,365.871 476.664,365.76 476.766,365.627C476.973,365.363 477.172,365.014 477.293,364.785C477.373,364.631 477.418,364.535 477.418,364.535L478.313,364.949C478.295,364.973 477.863,365.957 477.254,366.563C477.045,366.758 476.799,366.963 476.408,366.973L476.408,365.988Z" style="fill:rgb(0,117,96);fill-rule:nonzero;"/>
    </g>
</svg>
