<?xml version="1.0" encoding="UTF-8" standalone="no"?><!DOCTYPE svg PUBLIC "-//W3C//DTD SVG 1.1//EN" "http://www.w3.org/Graphics/SVG/1.1/DTD/svg11.dtd"><svg width="100%" height="100%" viewBox="0 0 175 175" version="1.1" xmlns="http://www.w3.org/2000/svg" xmlns:xlink="http://www.w3.org/1999/xlink" xml:space="preserve" xmlns:serif="http://www.serif.com/" style="fill-rule:evenodd;clip-rule:evenodd;stroke-linejoin:round;stroke-miterlimit:1.41421;"><g><clipPath id="_clip1"><rect x="0" y="0.56" width="175" height="174"/></clipPath><g clip-path="url(#_clip1)"><path d="M90.875,107.076l-4.746,-10.536c4.523,-3.32 8.41,-7.449 11.445,-12.168l10.809,4.098c2.066,0.781 4.375,-0.258 5.156,-2.324l3.973,-10.484c0.375,-0.993 0.34,-2.09 -0.094,-3.059c-0.438,-0.969 -1.238,-1.723 -2.23,-2.098l-10.809,-4.093c0.851,-5.543 0.68,-11.211 -0.508,-16.696l10.535,-4.746c0.969,-0.436 1.723,-1.238 2.098,-2.23c0.375,-0.993 0.344,-2.094 -0.094,-3.063l-4.605,-10.219c-0.907,-2.015 -3.278,-2.91 -5.289,-2.004l-10.536,4.747c-3.32,-4.524 -7.453,-8.411 -12.168,-11.446l4.098,-10.804c0.781,-2.067 -0.258,-4.379 -2.324,-5.161l-10.481,-3.972c-0.992,-0.375 -2.093,-0.34 -3.062,0.094c-0.965,0.437 -1.723,1.238 -2.098,2.23l-4.093,10.805c-5.547,-0.856 -11.227,-0.68 -16.696,0.511l-4.746,-10.535c-0.437,-0.969 -1.238,-1.722 -2.23,-2.097c-0.992,-0.375 -2.094,-0.344 -3.059,0.093l-10.223,4.602c-2.015,0.91 -2.91,3.277 -2.003,5.293l4.746,10.535c-4.524,3.32 -8.411,7.449 -11.446,12.164l-10.804,-4.094c-0.993,-0.375 -2.094,-0.34 -3.063,0.094c-0.965,0.438 -1.719,1.238 -2.098,2.231l-3.968,10.48c-0.785,2.066 0.258,4.375 2.32,5.16l10.809,4.094c-0.852,5.543 -0.68,11.211 0.507,16.695l-10.535,4.746c-0.968,0.438 -1.722,1.239 -2.097,2.231c-0.375,0.992 -0.345,2.094 0.093,3.062l4.602,10.219c0.437,0.965 1.238,1.723 2.23,2.098c0.993,0.375 2.094,0.343 3.063,-0.094l10.535,-4.746c3.32,4.523 7.449,8.41 12.164,11.445l-4.094,10.805c-0.781,2.066 0.258,4.375 2.324,5.16l10.485,3.969c0.453,0.176 0.937,0.261 1.414,0.261c0.563,0 1.121,-0.117 1.645,-0.355c0.964,-0.434 1.722,-1.238 2.097,-2.23l4.094,-10.805c5.551,0.855 11.227,0.68 16.695,-0.508l4.746,10.535c0.438,0.965 1.239,1.723 2.231,2.098c0.992,0.375 2.094,0.344 3.058,-0.094l10.223,-4.605c2.016,-0.907 2.91,-3.274 2.004,-5.289Zm-6.629,-38.024c-3.969,10.481 -14.164,17.524 -25.367,17.524c-3.277,0 -6.508,-0.598 -9.602,-1.77c-6.777,-2.566 -12.144,-7.617 -15.121,-14.223c-2.976,-6.605 -3.199,-13.972 -0.633,-20.75c3.969,-10.476 14.165,-17.519 25.368,-17.519c3.277,0 6.507,0.598 9.601,1.769c6.778,2.567 12.145,7.618 15.121,14.223c2.977,6.606 3.199,13.973 0.633,20.746Zm88.938,54.621c-0.719,-0.781 -1.719,-1.246 -2.778,-1.289l-7.535,-0.324c-0.691,-3.559 -1.945,-6.988 -3.703,-10.16l5.555,-5.098c1.629,-1.492 1.734,-4.023 0.242,-5.652l-5.516,-6.012c-0.719,-0.781 -1.719,-1.246 -2.777,-1.289c-1.059,-0.039 -2.094,0.332 -2.875,1.047l-5.555,5.101c-3.008,-2.027 -6.32,-3.566 -9.804,-4.562l0.324,-7.535c0.093,-2.207 -1.621,-4.071 -3.828,-4.168l-8.149,-0.348c-2.199,-0.082 -4.074,1.617 -4.168,3.824l-0.324,7.536c-3.555,0.691 -6.988,1.945 -10.156,3.707l-5.102,-5.559c-0.715,-0.781 -1.715,-1.246 -2.773,-1.293c-1.059,-0.043 -2.094,0.336 -2.875,1.051l-6.012,5.515c-1.629,1.497 -1.738,4.028 -0.242,5.653l5.097,5.554c-2.023,3.008 -3.566,6.321 -4.562,9.805l-7.531,-0.324c-2.199,-0.086 -4.075,1.617 -4.168,3.828l-0.352,8.148c-0.043,1.063 0.332,2.094 1.051,2.875c0.715,0.786 1.715,1.25 2.777,1.293l7.532,0.325c0.695,3.554 1.945,6.988 3.707,10.156l-5.555,5.101c-0.781,0.715 -1.246,1.715 -1.293,2.774c-0.047,1.062 0.332,2.094 1.051,2.875l5.515,6.012c0.715,0.781 1.715,1.246 2.778,1.293c1.054,0.043 2.093,-0.332 2.875,-1.051l5.554,-5.098c3.008,2.024 6.321,3.567 9.805,4.563l-0.324,7.535c-0.094,2.208 1.617,4.07 3.824,4.164l8.151,0.351c0.056,0 0.115,0.004 0.173,0.004c1,0 1.965,-0.375 2.703,-1.054c0.782,-0.715 1.247,-1.715 1.293,-2.774l0.321,-7.535c3.558,-0.695 6.988,-1.945 10.16,-3.707l5.097,5.559c0.719,0.781 1.715,1.246 2.778,1.289c1.062,0.047 2.094,-0.332 2.875,-1.047l6.012,-5.52c1.628,-1.492 1.734,-4.023 0.242,-5.648l-5.102,-5.559c2.028,-3.008 3.567,-6.316 4.563,-9.801l7.535,0.321c2.203,0.086 4.07,-1.617 4.168,-3.824l0.347,-8.149c0.047,-1.062 -0.332,-2.098 -1.046,-2.879Zm-45.059,23.653c-10.273,-0.442 -18.277,-9.161 -17.836,-19.434c0.43,-10.012 8.606,-17.855 18.617,-17.855c0.273,0 0.543,0.007 0.817,0.019c10.273,0.441 18.277,9.16 17.836,19.434c-0.442,10.281 -9.075,18.269 -19.434,17.836Z" style="fill:#007560;fill-rule:nonzero;"/></g></g></svg>