<svg xmlns="http://www.w3.org/2000/svg" viewBox="0 0 2000 278.12"><defs><style>.cls-1{fill:#c6c6c6;}.cls-2{fill:#989898;}.cls-3{fill:#797979;}.cls-4{fill:#646464;}</style></defs><g id="Layer_2" data-name="Layer 2"><g id="Layer_1-2" data-name="Layer 1"><path class="cls-1" d="M1868.13,100.76c-25.49-18.5-54.66-36.09-64.6-37.91l-4.09,6.76-38.21,16.86c-5.92-3.66-12.07-7.36-18.13-11.23-9.37-6-19.33-7.76-30.2-5a45.4,45.4,0,0,1-21.3.68c-6.6-1.42-13.58-3.53-21.34-1.22l-6.18,6.93-40.45,1.57h0c-3.06-.48-6.1-.92-9.06-1.49a58.43,58.43,0,0,1-19.28-7.91c-6.26-3.89-12.14-3.17-18.49-.67-14.17,5.59-28.38,11.07-42.66,16.33a30.41,30.41,0,0,1-9.83,1.65c-11.71.2-23.43.09-35.15.09a26.44,26.44,0,0,0-6.22.22c-20.29,4.94-40.33,10.61-59.69,18.61-4.73,1.94-9.66,3.42-13.42,4.74l-53.83-22h-28.61a53.34,53.34,0,0,1-6.19-.43c-6.87-.85-13.72-1.9-20.6-2.64-6.63-.69-13.32-1.11-20-1.69a13.14,13.14,0,0,1-2.22-.65l-27.53-7.53a37,37,0,0,1-12.46-5.74c-5.39-4-11.1-7.46-16.83-11.26-7.57,1.48-11.86,8.23-18.77,11.23h-12.33l-27.65,15.7a33.71,33.71,0,0,1-4.91-2.66c-8.9-6.87-18.9-11.65-28.9-16.65-3.83-1.92-7.58-3.35-10.33-2.75l-13.67,5-11.65-8.27c-2,.69-4.7,1.06-6.7,2.44-5,3.48-10.78,4.74-16.39,6.48-4.92,1.52-9.92,3.17-14.92,3.72-5.92.64-11.95.15-17.86.15l-14.55-18.79c-11.94,0-23.13-.16-34.32,0a34.4,34.4,0,0,1-12.2-1.82c-9.06-3.22-18.29-5.27-28.06-4.56-5.41.4-10.88.08-15.65.08-6.19-4.8-11.6-9.16-17.19-13.31a12,12,0,0,0-8-2.35c-8.44.51-17,.87-25.44,1.28l-14,16.67c-9.58,2.28-18.73,5-28.08,6.52-9,1.49-16.5,5.49-23.74,10.49-4,2.79-8.07,5.5-12.38,8.5l-3.81-8.65-14-2.24L769.38,78h-7.59l-8.13-7.61H735.8c-9.34-5.84-17.18-10.78-25.06-15.66-3.41-2.09-6.84-1.9-10.34,0-2.47,1.31-5.1,2.39-7.1,3.31-6.18-1.73-10.46-6.3-16.46-6.3L667,58.16c-3.64-3-7.68-3.62-11.93-3.24-5.38.45-10.75,1.36-16.13,1.45a37.84,37.84,0,0,0-13.65,2.36c-3.63,1.41-7.32,2.61-11,3.81-5.49,1.79-10.87,2.44-16.69.67a14.25,14.25,0,0,0-14,2.65c-1.53,1.3-3.5,2.08-5.81,3.4-10-8.24-21.33-13.33-32.33-12.88-6.88-3.17-11.59-6.3-16.75-7.48a75.22,75.22,0,0,0-22.33-1.85,36.45,36.45,0,0,1-7-.37c-3.29-.4-6.56-1-8.68-1.4L477,50.48l-11.62-6.65H450.32c-6.41-9.36-16.64-12.63-26.06-16l-3.83-6.08c-9.74,2-17.23,8.76-26.65,11.47a50.92,50.92,0,0,0-5.91-3.6,25,25,0,0,0-5.12-1.16C383.08,29,278.27,30,278.27,30c-2.34,0-4.68,0-7-.15A57.19,57.19,0,0,0,244,34.28c-5,2.18-10.3,2.8-15.81.59-4-1.61-8.4-2.25-12.66-3.25a63.14,63.14,0,0,0-25.21-.57c-9.84,1.68-19.84,2.47-29.53,5.1-3.72,1-7.57,1.72-11.09,3.2-8.67,3.62-17.75,3-26.75,3h-6.69c-7.11-9.9-18.64-13.29-28.83-18.81A12.91,12.91,0,0,0,76.2,23c-6.27,2.33-12.54,4.61-19.54,7.17l-13.2-8a32.11,32.11,0,0,0-21.39,6C15,33.27,7.38,37.69,0,42.41V269.29H1868.13Z"/><path class="cls-2" d="M918.68,278.12s11.81-138.39,11-139A32.69,32.69,0,0,1,934,137.5c14.28-3.13,28.56-6.32,42.89-9.22,5.52-1.12,11.18-1.51,16.26-2.17l20.59,14.28c16.93-3.56,28.33-14.47,41.36-23.73,3.33.59,6.88,1.07,10.35,1.88,8.76,2,17.41,4.67,26.25,6.27,7.69,1.39,14.36,4,19.35,10.22.29.36.9.47,1.37.69h9.9c5.76-3.93,11.29-7.76,16.86-11.5a11.71,11.71,0,0,1,12.46-.91c6.74,3.15,13.81,5.62,20.72,8.38l27-13.38c3.07.55,6.94.88,10.59,2,6.47,1.92,12.55,1.84,18.82-1a38.08,38.08,0,0,1,12.58-3.55c8.28-.55,16.62-.16,24.42-.16,2.85,2,5.17,3.64,7.52,5.23,3.63,2.46,7.28,3.25,11.72,1.61,8.44-3.14,17.07-5.79,25.68-8.46a31.64,31.64,0,0,1,8.3-1.45c9.6-.25,18.77,2.79,28.19,3.93,5.27.64,10,2.15,14.17,5.54,6.43,5.28,13.84,8.9,21.36,12.28,8.26,3.71,16.48,7.54,24.94,10.72s17.39,5.1,25.69,8.58c7.21,3,13.86,2.67,21,.5,23.38-7,46.84-13.84,68.92-20.34,6.19-6.2,11.82-11.25,16.74-16.92a94.2,94.2,0,0,1,37-26.43c3.36-1.33,6.55-3.48,10-4.09,9.36-1.64,18.84-2.66,29.72-4.12l8.36-4c12.87-3.08,26-1,39-1.73,3.62,0,7.22,0,10.45,2.13,3.84,2.55,7.79,4.94,10.27,6.51l59.51,9.38,28.13,16.44h29.9c1.92,0,4.24-.9,5.6,1.47l24.59,165.71Z"/><path class="cls-3" d="M0,278.12V118.75c8-.25,15.93,0,24-1.3,8.85-1.39,18-.62,27-1.54,15.41-1.56,31-1.33,46.54-1.85,1,0,2-.15,2.66-.19,2.13-1.32,3.84-2.5,5.65-3.47,8.91-4.76,17.89-9.38,26.75-14.23,7.7-4.22,15.13-9,23-12.93,5.21-2.64,10.08-6.44,16.3-6.77l38.55,26.44C226.13,87.25,241.58,71.8,257,56.34a21.57,21.57,0,0,0,1.6-1.71q9.86-12.41,19.7-24.83C284,23,289.86,16.15,295.59,9.4h16L321.91,0h4.68c4.35,4.52,6.85,10.75,12.75,14.24L353.93.54c2.41,2.2,4.31,3.83,6.1,5.57q11.39,11,22.72,22.13a15.49,15.49,0,0,0,1.35,1.89Q397.71,44.58,411.35,59a32.79,32.79,0,0,1,2.52,3c4.74,6.46,10.09,12.2,17,16.61,4.31,2.77,8.87,3.62,13.34,2.25,3.94-1.2,7.6-1,11.66-.91l9.71,10.32h18.35c.4-2.57.75-4.78,1.11-7.11,7.11-.63,12.57,4,19.62,4.47l20.05-11h38.88l31.22,12.56c13.54-.55,27.21-.26,40.67,3a64.8,64.8,0,0,0,10.65,1.55c7,.47,13.76-.8,20.61-2.57,7.39-1.91,14.78-5.1,24.76-2.89,5.4,3.25,12.5,7.42,19.5,11.81,4.15,2.6,7.88,5.89,12.14,8.26,10.62,5.9,21.77,11,28.4,22a12.85,12.85,0,0,0,2.51,2.26c3.3-2.19,6.37-4.63,9.78-6.38a29.38,29.38,0,0,0,9.31-7.86c3.93-4.75,8.09-9.31,12.09-13.88,15.83.57,30.29,5.89,45.45,7.13,15.32,1.26,30.53,4,48,6.4l19.18,15.82c3,.53,6,1.1,9.07,1.59q11.4,1.88,22.8,3.7a10.91,10.91,0,0,0,2.53,1.43c5.47,1.42,11,2.59,16.45,4.1,9.38,2.59,17,8.77,25.51,13.05,7.33,3.67,13,9.2,18,15.73,4.24,0,8.41.18,12.55-.05a47.3,47.3,0,0,1,15.34,1.78c7.92,2.2,16.07,3.71,23.27,8.15,10.78,6.65,216.58,59,228,60.4,13.26,1.68,104-44.65,111.86-47.08,15.75-4.91,31.43-10,47.22-14.84,3.9-1.18,8.07-1.49,12.13-2.1,4.83-.72,9.69-1.26,14.51-2,5.32-.82,10.59-2,15.92-2.66,9.43-1.22,19-1.82,28.33-3.4,10.2-1.73,20.35-3.17,30.72-2.92,6.23.15,12.47,0,18,0,10.58-6.93,20.44-13.58,30.54-19.84,2.26-1.4,5.37-1.85,8.11-1.95,7.28-.26,14.58-.08,20.55-.08,18-6.27,34.86-12.12,51.69-17.93a11.52,11.52,0,0,1,3.76-.78,321.43,321.43,0,0,0,36.45-1.51c5.67-.59,11.5.35,17.15-.32,11-1.31,22-2.58,33.06-3,8.51-.31,16.94-2.13,25.51-1.52a4.52,4.52,0,0,0,1.55-.19q14.74-4.57,29.48-9.2l54.7-15.71L1887,90l14.28-11.78h37.88c8.56,3.24,12.7,12.33,20.73,17.41l20.77-8.12H2000V278.12Z"/><path class="cls-4" d="M2000,113.82c-24.3-12.17-51.18-15.42-76.51-22.92-2.39-.71-5.17-.09-7-.09-46.42,17.14-90.33,38.36-134.18,58.42L1645.4,169.38,1577,237.92c-4.06-.57-8.34-1.21-12.64-1.78s-8.66-1.12-13-1.62c-10.75-1.24-21.49-2.45-31.54-3.59-15.48-5.22-30.36-10.27-45.26-15.26s-29.9-9.69-44.7-15c-7.75-2.77-15.18-6.43-22.71-9.79-8-3.58-16-7.28-25.4-11.56a105.06,105.06,0,0,0-10.65,2.41c-11.76,3.81-23.35,8.16-35.17,11.79-9.81,3-19.81,5.45-29.8,7.82-12.74,3-25.58,5.63-38.34,8.58-14.26,3.3-28.45,6.84-42.71,10.13-2,.45-4.14.06-6.22.06l-52-23.13a35.58,35.58,0,0,0-12.66,1.21,141.09,141.09,0,0,1-19.47,4.56,24.89,24.89,0,0,1-9.94-.66q-28.72-7.46-57.33-15.39a15.58,15.58,0,0,0-12,1.09c-5.29,2.73-10.81,5.06-15.91,8.09-10,5.92-20.92,8.27-32.08,10.47-11.59,2.28-23,5.25-34.54,8-12.23,2.91-24.39,6.12-36.69,8.73a37.71,37.71,0,0,1-12.45.21c-8.89-1.15-17.68-3.07-26.57-4.25-4.09-.55-8.31-.09-12.74-.09l-60.62,26.61c-8.55-2.79-17.57-5.78-26.62-8.69-9.31-3-18.53-6.36-28-8.75-11.93-3-24.06-5.27-36.12-7.78-11.55-2.41-23.13-4.72-34.69-7.11-3.27-.67-6.49-1.93-9.77-2.06a33.86,33.86,0,0,0-11.42,1.12c-18.19,5.7-36.37,11.49-54.35,17.8-8.6,3-17.57,3.71-26.31,5.71-14.51,3.3-29.16,6-43.76,8.85-9.32,1.83-18.67,3.49-28,5.32-12.09,2.38-24.16,4.84-36.23,7.26a20.56,20.56,0,0,1-11.42-.61c-20.1-7.13-40.45-13.62-60.46-21.11-16.15-6-31.86-13.29-47.83-19.84-15.73-6.44-31.56-12.62-47.3-19q-15-6.1-30-12.54a33,33,0,0,0-12.7-2.92c-22-.39-44.16-.1-66.1-1.84-13.25-1-26.53.2-39.57-1.5-12.73-1.65-25.49.13-38-1.52-14.79-2-29.54-.63-44.81-1.53-4.19-2.06-8.82-4.36-13.47-6.63q-32.75-16-65.51-32.06C7.71,134.31,0,131.25,0,131.25V278.12H2000Z"/></g></g></svg>