<?xml version="1.0" encoding="utf-8"?>
<!-- Generator: Adobe Illustrator 24.1.3, SVG Export Plug-In . SVG Version: 6.00 Build 0)  -->
<svg version="1.1" id="Layer_1" xmlns:serif="http://www.serif.com/"
	 xmlns="http://www.w3.org/2000/svg" xmlns:xlink="http://www.w3.org/1999/xlink" x="0px" y="0px" viewBox="0 0 2000 2000"
	 style="enable-background:new 0 0 2000 2000;" xml:space="preserve">
<style type="text/css">
	.st0{fill:#797979;}
	.st1{fill:#FEFEFE;}
	.st2{fill:#C6C6C6;}
	.st3{fill:#989898;}
	.st4{fill:#646464;}
</style>
<g transform="matrix(1,0,0,1,0,2109)">
	<g>
		<g id="_Image1_" serif:id="_Image1">
			
				<image style="overflow:visible;enable-background:new    ;" width="1280" height="327" id="_Image1" xlink:href="89DCFA69.png"  transform="matrix(1.5625 0 0 1.5625 0 -1202.75)">
			</image>
		</g>
	</g>
</g>
<g transform="matrix(1,0,0,1,477,2144)">
	<g>
		<g id="_Image2_" serif:id="_Image2">
			
				<image style="overflow:visible;enable-background:new    ;" width="760" height="279" id="_Image2" xlink:href="89DCFA6B.png"  transform="matrix(1.5625 0 0 1.5625 268.3125 -1183.0625)">
			</image>
		</g>
	</g>
</g>
<g>
	<g>
		<path class="st0" d="M2000,971.9c0,75.5,0,151,0,226.6c-2.6,0-5.1,0.1-7.7,0.1c-1.7,0.5-3.4,1.1-5.1,1.4
			c-7.5,1.3-15.1,2.5-22.6,3.7c-7.8,1.3-15.5,2.7-23.3,4.1c-8.5,1.5-17,3.1-25.5,4.7c-3.8,0.5-7.6,0.9-11.4,1.5
			c-7.8,1.3-15.7,2.8-23.5,4.1c-10.4,1.8-20.7,3.5-31.1,5.3c-7.8,1.3-15.7,2.7-23.5,4.1c-7.3,1.3-14.7,2.5-22,3.7
			c-7.8,1.4-15.6,2.8-23.5,4.1c-10.4,1.8-20.7,3.5-31.1,5.2c-7.8,1.3-15.6,2.8-23.5,4.1c-7.3,1.3-14.7,2.4-22,3.7
			c-7.8,1.4-15.6,2.8-23.5,4.2c-10.4,1.8-20.8,3.4-31.1,5.2c-7.8,1.3-15.6,2.8-23.5,4.1c-7.3,1.3-14.7,2.4-22,3.7
			c-7.8,1.4-15.6,2.9-23.5,4.2c-10.4,1.8-20.8,3.4-31.1,5.2c-7.8,1.3-15.6,2.8-23.5,4.2c-7.3,1.3-14.7,2.4-22,3.7
			c-7.8,1.4-15.6,2.9-23.5,4.2c-7.3,1.3-14.7,2.3-22,3.6c-7.6,1.3-15.1,2.7-22.7,4c-10.4,1.8-20.7,3.6-31.1,5.4
			c-7.8,1.3-15.7,2.6-23.5,4c-7.3,1.3-14.7,2.6-22,3.8c-7.8,1.4-15.7,2.7-23.5,4c-10.1,1.8-20.2,3.6-30.3,5.3
			c-7.6,1.3-15.3,2.1-22.9,3.4c-13.4,2.4-26.7,5.1-40.1,7.5c-10.6,1.9-21.3,3.3-31.9,5.1c-7.8,1.3-15.6,2.9-23.4,4.4
			c-7.8,1.4-15.6,2.9-23.5,4.1c-5.6,0.9-11.2,1.5-16.8,2.2c-3.7,0.8-7.4,1.8-11.2,2.4c-10.3,1.8-20.7,3.6-31,5.3
			c-7.8,1.3-15.6,2.6-23.5,4c-7.3,1.3-14.6,2.6-21.9,3.8c-7.8,1.4-15.6,2.7-23.4,4c-10.3,1.8-20.7,3.6-31,5.4
			c-8.1,1.4-16.1,2.9-24.2,4.3c-6.8,1.2-13.6,2.4-20.4,3.5c-8.3,1.4-16.6,2.9-24.9,4.3c-10.4,1.7-20.7,3.4-31.1,5.1
			c-7.3,1.2-14.7,2.2-22,3.6c-7,1.3-14,3-21.1,4.2c-7.8,1.3-15.8,2-23.6,3.4c-13.3,2.4-26.6,5.2-40,7.5c-10.6,1.9-21.3,3.2-31.9,5
			c-11.1,1.9-22.1,4.1-33.2,6c-7.3,1.3-14.7,2.2-22,3.5c-7.8,1.3-15.6,3-23.4,4.3c-7.3,1.3-14.7,2.3-22,3.5
			c-7.8,1.3-15.6,2.9-23.4,4.3c-7.3,1.3-14.7,2.4-22,3.5c-8.8,1.4-17.7,2.9-26.5,4.4c-0.9,0.1-1.6,1-2.4,1.5c-5.2,0-10.4,0-15.6,0
			c-0.3-0.4-0.5-1-0.9-1.1c-14.4-3.8-28.7-7.5-43.1-11.2c-24.1-6.2-48.1-12.2-72.2-18.4c-24.8-6.3-49.6-12.7-74.4-19.1
			c-13.1-3.5-26.3-7-39.4-10.4c-24.6-6.5-49.1-13-73.8-19.3c-25.6-6.6-51.3-12.8-76.9-19.4c-19.6-5-39.2-10.3-58.9-15.3
			c-10.4-2.7-20.9-5.2-31.4-7.9c-23.6-6.1-47.2-12.3-70.8-18.5c-11.2-3-22.2-6.2-33.4-9.3c0-95.8,0-191.7,0-287.5
			c8-0.3,15.9,0,24-1.3c8.9-1.4,18-0.6,27-1.5c15.4-1.6,31-1.3,46.5-1.9c1,0,2.1-0.1,2.7-0.2c2.1-1.3,3.8-2.5,5.6-3.5
			c8.9-4.8,17.9-9.4,26.7-14.2c7.7-4.2,15.1-9,23-12.9c5.2-2.6,10.1-6.4,16.3-6.8c12.9,8.8,25.6,17.6,38.5,26.4
			c15.6-15.7,31.1-31.1,46.5-46.6c0.6-0.6,1.1-1.1,1.6-1.7c6.6-8.3,13.1-16.6,19.7-24.8c5.8-6.8,11.6-13.6,17.3-20.4
			c5.7,0,10.9,0,16,0c3.6-3.3,7-6.3,10.3-9.4c1.6,0,3.1,0,4.7,0c4.4,4.5,6.8,10.8,12.7,14.2c4.9-4.6,9.5-8.9,14.6-13.7
			c2.4,2.2,4.3,3.8,6.1,5.6c7.6,7.4,15.1,14.7,22.7,22.1c0.4,0.6,0.8,1.3,1.3,1.9c9.1,9.6,18.2,19.2,27.3,28.9
			c0.9,0.9,1.8,1.9,2.5,3c4.7,6.5,10.1,12.2,16.9,16.6c4.3,2.8,8.9,3.6,13.3,2.3c3.9-1.2,7.6-1,11.7-0.9c3.2,3.4,6.4,6.8,9.7,10.3
			c5.9,0,12,0,18.4,0c0.4-2.6,0.7-4.8,1.1-7.1c7.1-0.6,12.6,4,19.6,4.5c6.6-3.6,13.6-7.4,20-11c13.5,0,26.3,0,38.9,0
			c10.4,4.2,20.7,8.3,31.2,12.6c13.5-0.6,27.2-0.3,40.7,3c3.5,0.8,7.1,1.3,10.6,1.6c7,0.5,13.8-0.8,20.6-2.6
			c7.4-1.9,14.8-5.1,24.8-2.9c5.4,3.2,12.5,7.4,19.5,11.8c4.1,2.6,7.9,5.9,12.1,8.3c10.6,5.9,21.8,11,28.4,22
			c0.5,0.8,1.5,1.4,2.5,2.3c3.3-2.2,6.4-4.6,9.8-6.4c3.8-1.9,6.7-4.7,9.3-7.9c3.9-4.7,8.1-9.3,12.1-13.9c15.8,0.6,30.3,5.9,45.5,7.1
			c15.3,1.3,30.5,4,48,6.4c5.3,4.4,12.3,10.1,19.2,15.8c3,0.5,6,1.1,9.1,1.6c7.6,1.2,15.2,2.5,22.8,3.7c0.8,0.5,1.6,1.2,2.5,1.4
			c5.5,1.4,11,2.6,16.5,4.1c9.4,2.6,17,8.8,25.5,13c7.3,3.7,13,9.2,18,15.7c4.2,0,8.4,0.2,12.6,0c5.2-0.3,10.3,0.4,15.3,1.8
			c7.9,2.2,16.1,3.7,23.3,8.2c10.8,6.6,21.7,13.1,32.6,19.5c10.7,6.3,21.4,12.6,31.8,18.7c6.7,0.7,13.1,1.2,19.5,2
			c4.8,0.6,9.7,1.3,14.5,2c5.3,0.8,10.6,1.8,15.9,2.5c5.6,0.7,11.3,0.9,16.9,1.8c9.4,1.3,18.7,3.1,28.1,4.5
			c11.4,1.7,22.9,3.2,34.3,4.7c11.4,1.6,22.9,3.2,34.3,4.7c13.3,1.7,26.5,3.2,39.8,4.8c4.6,0.6,9.2,1,13.8,1.7
			c8.9,1.4,17.7,3.2,26.5,4.4c9.9,1.3,20,2,29.9,3.3c5.1,0.6,10.1,1.9,15.1,2.7c4.8,0.8,9.7,1.2,14.5,1.9c6.9,1,13.7,2,20.6,3
			c1.2,0.2,2.5,0,4.9,0c-1.7-1.5-2.4-2.2-3.1-2.8c-9.9-7.5-19.8-14.8-29.6-22.4c-12.7-9.7-25.3-19.6-38-29.3c-2.5-1.9-5-3.6-6.5-7.3
			c8.3-2.5,16.2-4.7,24-7.1c15.7-4.9,31.4-10,47.2-14.8c3.9-1.2,8.1-1.5,12.1-2.1c4.8-0.7,9.7-1.3,14.5-2c5.3-0.8,10.6-2,15.9-2.7
			c9.4-1.2,19-1.8,28.3-3.4c10.2-1.7,20.4-3.2,30.7-2.9c6.2,0.2,12.5,0,18,0c10.6-6.9,20.4-13.6,30.5-19.8c2.3-1.4,5.4-1.9,8.1-2
			c7.3-0.3,14.6-0.1,20.5-0.1c18-6.3,34.9-12.1,51.7-17.9c1.2-0.4,2.5-0.8,3.8-0.8c12.2,0.1,24.3-0.3,36.4-1.5
			c5.7-0.6,11.5,0.4,17.2-0.3c11-1.3,22-2.6,33.1-3c8.5-0.3,16.9-2.1,25.5-1.5c0.5,0,1.1,0,1.5-0.2c9.8-3.1,19.7-6.1,29.5-9.2
			c18.2-5.2,36.5-10.5,54.7-15.7c8.1-2.3,16.3-4.5,24.4-6.8c4.7-3.9,9.5-7.8,14.3-11.8c12.6,0,25,0,37.9,0
			c8.6,3.2,12.7,12.3,20.7,17.4c6.8-2.7,13.8-5.4,20.8-8.1C1987,971.9,1993.5,971.9,2000,971.9z"/>
		<path class="st1" d="M2000,971.9c-6.5,0-13,0-19.4,0c-7,2.7-13.9,5.4-20.8,8.1c-8-5.1-12.2-14.2-20.7-17.4c-12.8,0-25.3,0-37.9,0
			c-4.8,3.9-9.5,7.9-14.3,11.8c-8.1,2.3-16.3,4.5-24.4,6.8c-25.5-18.5-49.1-32.2-59.1-34.1c-1.3,2.2-2.8,4.6-4.1,6.8
			c-12.6,5.6-25.1,11.1-38.2,16.9c-5.9-3.7-12.1-7.4-18.1-11.2c-9.4-6-19.3-7.8-30.2-5c-7,1.8-13.9,2.3-21.3,0.7
			c-6.6-1.4-13.6-3.5-21.3-1.2c-1.8,2-4,4.5-6.2,7c-13,0.7-26.1-1.4-38.9,1.7c-3.5-0.6-7.1-1.1-10.6-1.8c-6.9-1.4-13.4-4.2-19.3-7.9
			c-6.3-3.9-12.1-3.2-18.5-0.7c-14.2,5.6-28.4,11.1-42.7,16.3c-3.1,1.1-6.5,1.6-9.8,1.7c-11.7,0.2-23.4,0.1-35.1,0.1
			c-2.1,0-4.2-0.3-6.2,0.2c-20.3,4.9-40.3,10.7-59.7,18.6c-4.7,1.9-9.7,3.4-13.4,4.7c-18.9-7.7-36.5-14.9-53.8-22
			c-9.9,0-19.2,0-28.6,0c-2.1,0-4.1-0.2-6.2-0.4c-6.9-0.9-13.7-1.9-20.6-2.6c-6.7-0.7-13.4-1.1-20-1.7c-0.8-0.1-1.5-0.4-2.2-0.6
			c-9.2-2.5-18.4-5-27.5-7.5c-4.5-1.2-8.6-2.9-12.5-5.7c-5.4-4-11.1-7.5-16.8-11.3c-7.6,1.5-11.9,8.2-18.8,11.2c-3.8,0-7.9,0-12.3,0
			c-9.1,5.2-18.3,10.4-27.6,15.7c-1.8-0.9-3.5-1.6-4.9-2.7c-8.9-6.9-18.9-11.6-28.9-16.6c-3.8-1.9-7.6-3.4-10.3-2.8
			c-5.6,2.1-9.7,3.6-13.7,5c-3.9-2.8-7.5-5.4-11.6-8.4c-2,0.7-4.7,1.1-6.7,2.4c-5,3.5-10.8,4.7-16.4,6.5c-4.9,1.5-9.9,3.2-14.9,3.7
			c-5.9,0.6-11.9,0.2-17.9,0.2c-5-6.5-9.9-12.7-14.5-18.7c-11.9,0-23.1-0.1-34.3,0.1c-4.2,0.1-8.2-0.4-12.2-1.8
			c-9.1-3.2-18.3-5.3-28.1-4.6c-5.4,0.4-10.9,0.1-15.7,0.1c-6.2-4.8-11.6-9.2-17.2-13.3c-2.3-1.7-5-2.5-8.1-2.3
			c-8.5,0.5-17,0.9-25.4,1.3c-5,6-9.7,11.5-14,16.7c-9.6,2.3-18.7,5-28.1,6.5c-9,1.5-16.5,5.5-23.7,10.5c-4,2.8-8.1,5.5-12.4,8.5
			c-1.3-3-2.5-5.8-3.8-8.7c-5-0.8-9.8-1.6-14-2.2c-6.1,5.1-11.4,9.6-16.7,14c-2.6,0-5.2,0-7.6,0c-2.9-2.7-5.5-5.2-8.1-7.6
			c-6.8,0-13.3,0-17.9,0c-9.3-5.8-17.2-10.8-25.1-15.7c-3.4-2.1-6.8-1.9-10.3,0c-2.5,1.3-5.1,2.4-7.1,3.3
			c-6.2-1.7-10.5-6.3-16.5-6.3c-3.3,2.2-6.5,4.2-9.9,6.4c-3.6-3-7.7-3.6-11.9-3.2c-5.4,0.5-10.7,1.4-16.1,1.5
			c-4.7,0.1-9.2,0.6-13.6,2.4c-3.6,1.4-7.3,2.6-11,3.8c-5.5,1.8-10.9,2.4-16.7,0.7c-4.8-1.5-9.7-0.9-14,2.6
			c-1.5,1.3-3.5,2.1-5.8,3.4c-10-8.2-21.4-13.3-32.3-12.9c-6.9-3.2-11.6-6.3-16.7-7.5c-7.2-1.7-14.8-2.4-22.3-1.8
			c-2.3,0.2-4.7-0.1-7-0.4c-3.3-0.4-6.6-1-8.7-1.4c-5.3,2-9.4,3.6-13.6,5.2c-3.9-2.2-7.7-4.4-11.6-6.7c-4.9,0-9.8,0-15.1,0
			c-6.4-9.4-16.6-12.6-26.1-16c-1.4-2.3-2.5-4-3.8-6.1c-9.7,2-17.2,8.8-26.6,11.5c-1.9-1.2-3.8-2.6-5.9-3.5
			c-1.6-0.7-3.4-0.8-5.1-1.2c-7.6-7.4-15.1-14.8-22.7-22.1c-1.8-1.7-3.7-3.4-6.1-5.6c-5.1,4.8-9.7,9.1-14.6,13.7
			c-5.9-3.5-8.4-9.7-12.7-14.2c557.8,0,1115.6,0,1673.4,0C2000,913.5,2000,942.7,2000,971.9z"/>
		<path class="st1" d="M1992.3,1198.6c2.6,0,5.1-0.1,7.7-0.1c0,80.7,0,161.5,0,242.2c-469.8,0-939.6,0-1409.4,0
			c0.8-0.5,1.6-1.3,2.4-1.5c8.8-1.5,17.7-2.9,26.5-4.4c7.3-1.2,14.7-2.3,22-3.5c7.8-1.4,15.6-2.9,23.4-4.3c7.3-1.3,14.7-2.3,22-3.5
			c7.8-1.4,15.6-3,23.4-4.3c7.3-1.3,14.7-2.2,22-3.5c11.1-1.9,22.1-4.2,33.2-6c10.6-1.8,21.3-3.1,31.9-5c13.3-2.3,26.6-5.2,40-7.5
			c7.8-1.4,15.8-2.1,23.6-3.4c7.1-1.2,14-2.9,21.1-4.2c7.3-1.3,14.7-2.4,22-3.6c10.4-1.7,20.7-3.3,31.1-5.1
			c8.3-1.4,16.6-2.9,24.9-4.3c6.8-1.2,13.6-2.3,20.4-3.5c8.1-1.4,16.1-2.9,24.2-4.3c10.3-1.8,20.7-3.6,31-5.4
			c7.8-1.3,15.6-2.7,23.4-4c7.3-1.3,14.6-2.6,21.9-3.8c7.8-1.3,15.6-2.7,23.5-4c10.3-1.8,20.7-3.5,31-5.3c3.8-0.7,7.5-1.6,11.2-2.4
			c5.1,2.5,10,5.3,15.2,7.4c17.9,7.3,35.9,14.2,53.8,21.5c19.6,8,39,16.2,57.9,24.1c18.4,0,36.1,0,53.8,0c2.1,0,4.2,0,6.2-0.4
			c6.8-1.3,13.5-3,20.3-4.1c10.6-1.8,21.3-3.2,31.9-5c11.1-1.9,22.1-4.1,33.2-6.1c6.8-1.2,13.7-2.1,20.5-3.4
			c12.8-2.4,25.6-5.2,38.4-7.5c10.6-1.9,21.3-3.2,31.9-5c10.6-1.8,21.1-4.1,31.7-5.9c7.1-1.3,14.2-2.1,21.3-3.4
			c12.8-2.4,25.6-5.2,38.4-7.5c10.6-1.9,21.3-3.2,31.9-5c10.6-1.8,21.1-4,31.7-6c8-1.5,16.1-3,24.1-4.5c6.3-1.1,12.6-2.2,18.9-3.3
			c7.6-1.2,15.2-2.3,22.8-3.6c12.6-2.3,25.1-5,37.7-7.2c10.6-1.9,21.3-3.2,31.9-5c10.8-1.9,21.6-4.1,32.4-6c6.8-1.2,13.7-2,20.5-3.3
			c12.8-2.4,25.6-5.2,38.4-7.5c13.6-2.4,27.2-4.5,40.8-6.7c0.3-1.2,0.4-1.9,0.6-2.7c11.1-0.6,22.1-1.3,33.2-1.9
			c0.4,0,0.9-0.5,1.9-1.2c2.8-9.3,5.8-19.1,8.5-28.9C1981.8,1236.6,1987,1217.6,1992.3,1198.6z"/>
		<path class="st2" d="M0,1290.6c11.1,3.1,22.2,6.3,33.4,9.3c23.6,6.3,47.2,12.4,70.8,18.5c10.4,2.7,20.9,5.2,31.4,7.9
			c19.6,5.1,39.2,10.3,58.9,15.3c25.6,6.5,51.3,12.8,76.9,19.4c24.6,6.3,49.2,12.8,73.8,19.3c13.2,3.5,26.3,7,39.4,10.4
			c-0.6,0.4-1.2,1.2-1.8,1.3c-9.5,0.3-19.1,0.5-28.6,1.5c-11.5,1.3-23.2,1.2-34.8,1.8c-0.5,0-1.1-0.1-1.5,0.1
			c-5.2,2.4-10.7,1-16.1,1.5c-5.4,0.4-10.7,1.2-16.1,1.5c-12.1,0.6-24.3,1.1-36.4,1.6c-0.5,0-1.1-0.1-1.5,0.1
			c-5,2.2-10.2,1.1-15.3,1.5c-5.4,0.4-10.7,1.2-16.1,1.5c-6.9,0.4-13.8,0.3-20.8,1.3c-11,1.5-22.1,1.3-33.2,1.9
			c-9.8,0.5-19.6,1.1-29.4,1.6c-0.3,0-0.5,0-0.8,0.1c-10,3.3-20.5,0.4-30.7,2.8c-6.9,1.6-14.3,0.4-21.6,1.5
			c-8.3,1.3-16.9,0.3-25.5,1.7c-7.1,1.1-14.3,0.5-21.6,1.5c-10.7,1.5-21.6,1.3-32.5,1.8C0,1375,0,1332.8,0,1290.6z"/>
		<path class="st1" d="M0,1417.2c10.8-0.5,21.8-0.3,32.5-1.8c7.2-1,14.5-0.4,21.6-1.5c8.5-1.4,17.1-0.3,25.5-1.7
			c7.3-1.1,14.7,0.1,21.6-1.5c10.2-2.4,20.7,0.5,30.7-2.8c0.2-0.1,0.5-0.1,0.8-0.1c9.8-0.5,19.6-1.1,29.4-1.6
			c11.1-0.6,22.3-0.3,33.2-1.9c7-1,13.9-0.9,20.8-1.3c5.4-0.3,10.7-1.1,16.1-1.5c5.1-0.4,10.4,0.7,15.3-1.5c0.4-0.2,1-0.1,1.5-0.1
			c12.1-0.5,24.3-1,36.4-1.6c5.4-0.3,10.7-1.1,16.1-1.5c5.4-0.4,10.9,0.9,16.1-1.5c0.4-0.2,1-0.1,1.5-0.1
			c11.6-0.5,23.3-0.5,34.8-1.8c9.5-1.1,19.1-1.3,28.6-1.5c0.6,0,1.2-0.8,1.8-1.3c24.8,6.4,49.6,12.8,74.4,19.1
			c24.1,6.2,48.1,12.2,72.2,18.4c14.4,3.7,28.7,7.5,43.1,11.2c0.4,0.1,0.6,0.8,0.9,1.1c-191.7,0-383.3,0-575,0
			C0,1432.8,0,1425,0,1417.2z"/>
		<path class="st2" d="M278.2,914.2c-6.6,8.3-13.1,16.6-19.7,24.8c-0.5,0.6-1,1.2-1.6,1.7c-15.4,15.5-30.9,30.9-46.5,46.6
			c-12.9-8.9-25.7-17.6-38.5-26.4c-6.2,0.3-11.1,4.1-16.3,6.8c-7.8,4-15.3,8.7-23,12.9c-8.9,4.8-17.8,9.5-26.7,14.2
			c-1.8,1-3.5,2.2-5.6,3.5c-0.6,0-1.6,0.2-2.7,0.2c-15.5,0.5-31.1,0.3-46.5,1.9c-9.1,0.9-18.2,0.1-27,1.5c-8,1.3-16,1-24,1.3
			c0-25.5,0-51,0-76.6c7.4-4.7,15-9.1,22.1-14.3c6.7-4.8,13.9-6.4,21.4-6c4.8,2.9,9.1,5.6,13.2,8c7-2.6,13.3-4.8,19.5-7.2
			c3.8-1.4,7.5-1.4,11.2,0.6c10.2,5.5,21.7,8.9,28.8,18.8c2.5,0,4.6,0,6.7,0c9,0,18.1,0.6,26.7-3c3.5-1.5,7.4-2.2,11.1-3.2
			c9.7-2.6,19.7-3.4,29.5-5.1c8.6-1.5,16.9-1.3,25.2,0.6c4.3,1,8.6,1.6,12.7,3.2c5.5,2.2,10.8,1.6,15.8-0.6c8.8-3.8,17.8-5,27.3-4.4
			C273.6,914.2,275.9,914.1,278.2,914.2z"/>
		<path class="st1" d="M278.2,914.2c-2.3,0-4.7,0-7-0.1c-9.4-0.6-18.5,0.6-27.3,4.4c-5,2.2-10.3,2.8-15.8,0.6
			c-4-1.6-8.4-2.3-12.7-3.2c-8.4-1.9-16.6-2.1-25.2-0.6c-9.8,1.7-19.8,2.5-29.5,5.1c-3.7,1-7.6,1.7-11.1,3.2c-8.7,3.7-17.7,3-26.7,3
			c-2.1,0-4.1,0-6.7,0c-7.1-9.9-18.6-13.3-28.8-18.8c-3.7-2-7.4-2-11.2-0.6c-6.3,2.3-12.6,4.6-19.5,7.2c-4.1-2.5-8.4-5.1-13.2-8
			c-7.5-0.4-14.7,1.2-21.4,6C15,917.4,7.4,921.8,0,926.6c0-14.1,0-28.1,0-42.2c107.3,0,214.6,0,321.9,0c-3.4,3.1-6.8,6.1-10.3,9.4
			c-5.1,0-10.3,0-16,0C289.8,900.5,284,907.3,278.2,914.2z"/>
		<path class="st3" d="M1625.1,962.6c12.9-3.1,26-1,38.9-1.7c3.6,0,7.2,0,10.5,2.1c3.8,2.6,7.8,4.9,10.3,6.5
			c20.3,3.2,39,6.1,59.5,9.4c8.2,4.8,18,10.5,28.1,16.4c9.7,0,19.8,0,29.9,0c1.9,0,4.2-0.9,5.6,1.5c-9.8,3.1-19.6,6.1-29.5,9.2
			c-0.5,0.2-1,0.2-1.5,0.2c-8.6-0.6-17,1.2-25.5,1.5c-11.1,0.4-22.1,1.7-33.1,3c-5.7,0.7-11.5-0.3-17.2,0.3
			c-12.1,1.3-24.3,1.6-36.4,1.5c-1.3,0-2.6,0.4-3.8,0.8c-16.8,5.8-33.7,11.7-51.7,17.9c-6,0-13.3-0.2-20.5,0.1
			c-2.7,0.1-5.9,0.6-8.1,2c-10.1,6.3-20,12.9-30.5,19.8c-5.6,0-11.8,0.1-18,0c-10.4-0.3-20.5,1.2-30.7,2.9
			c-9.4,1.6-18.9,2.2-28.3,3.4c-5.3,0.7-10.6,1.8-15.9,2.7c-4.8,0.7-9.7,1.3-14.5,2c-4.1,0.6-8.2,0.9-12.1,2.1
			c-15.8,4.8-31.5,9.9-47.2,14.8c-7.8,2.4-15.7,4.7-24,7.1c1.6,3.7,4.1,5.4,6.5,7.3c12.7,9.7,25.3,19.6,38,29.3
			c9.8,7.5,19.8,14.9,29.6,22.4c0.8,0.6,1.5,1.3,3.1,2.8c-2.4,0-3.7,0.1-4.9,0c-6.9-0.9-13.7-2-20.6-3c-4.8-0.7-9.7-1.1-14.5-1.9
			c-5.1-0.8-10-2.1-15.1-2.7c-9.9-1.2-20-2-29.9-3.3c-8.9-1.2-17.7-3-26.5-4.4c-4.6-0.7-9.2-1.2-13.8-1.7
			c-13.3-1.6-26.5-3.1-39.8-4.8c-11.5-1.5-22.9-3.1-34.3-4.7c-11.4-1.6-22.9-3-34.3-4.7c-9.4-1.4-18.7-3.1-28.1-4.5
			c-5.6-0.8-11.3-1-16.9-1.8c-5.3-0.7-10.6-1.7-15.9-2.5c-4.8-0.7-9.6-1.5-14.5-2c-6.4-0.7-12.8-1.3-19.5-2
			c-10.4-6.1-21.1-12.4-31.8-18.7c-10.9-6.5-21.8-12.9-32.6-19.5c-7.2-4.4-15.3-5.9-23.3-8.2c-5-1.4-10.1-2.1-15.3-1.8
			c-4.1,0.2-8.3,0-12.6,0c-5-6.5-10.6-12.1-18-15.7c-8.5-4.3-16.1-10.5-25.5-13c-5.4-1.5-11-2.7-16.5-4.1c-0.9-0.2-1.7-0.9-2.5-1.4
			c1.4-0.5,2.8-1.3,4.3-1.6c14.3-3.1,28.6-6.3,42.9-9.2c5.5-1.1,11.2-1.5,16.3-2.2c7.6,5.3,14.6,10.1,20.6,14.3
			c16.9-3.6,28.3-14.5,41.4-23.7c3.3,0.6,6.9,1.1,10.4,1.9c8.8,2.1,17.4,4.7,26.2,6.3c7.7,1.4,14.4,4,19.3,10.2
			c0.3,0.4,0.9,0.5,1.4,0.7c3.4,0,6.7,0,9.9,0c5.8-3.9,11.3-7.8,16.9-11.5c4-2.7,7.9-3,12.5-0.9c6.7,3.1,13.8,5.6,20.7,8.4
			c9-4.4,17.6-8.7,27-13.4c3.1,0.5,6.9,0.9,10.6,2c6.5,1.9,12.5,1.8,18.8-1c4-1.8,8.3-3.3,12.6-3.6c8.3-0.6,16.6-0.2,24.4-0.2
			c2.9,2,5.2,3.6,7.5,5.2c3.6,2.5,7.3,3.3,11.7,1.6c8.4-3.1,17.1-5.8,25.7-8.5c2.7-0.8,5.5-1.4,8.3-1.4c9.6-0.3,18.8,2.8,28.2,3.9
			c5.3,0.6,10,2.2,14.2,5.5c6.4,5.3,13.8,8.9,21.4,12.3c8.3,3.7,16.5,7.5,24.9,10.7c8.4,3.2,17.4,5.1,25.7,8.6
			c7.2,3,13.9,2.7,21,0.5c23.4-7.1,46.8-13.8,68.9-20.3c6.2-6.2,11.8-11.3,16.7-16.9c10.3-11.8,22.5-20.7,37-26.4
			c3.4-1.3,6.6-3.5,10-4.1c9.4-1.6,18.8-2.7,29.7-4.1C1618.7,965.7,1621.9,964.1,1625.1,962.6z"/>
		<path class="st2" d="M1625.1,962.6c-3.2,1.5-6.4,3.1-8.3,4c-10.9,1.5-20.4,2.5-29.7,4.1c-3.5,0.6-6.7,2.8-10,4.1
			c-14.5,5.7-26.7,14.6-37,26.4c-4.9,5.7-10.6,10.7-16.7,16.9c-22.1,6.5-45.5,13.3-68.9,20.3c-7.2,2.2-13.8,2.5-21-0.5
			c-8.3-3.5-17.3-5.4-25.7-8.6c-8.5-3.2-16.7-7-24.9-10.7c-7.5-3.4-14.9-7-21.4-12.3c-4.1-3.4-8.9-4.9-14.2-5.5
			c-9.4-1.1-18.6-4.2-28.2-3.9c-2.8,0.1-5.6,0.6-8.3,1.4c-8.6,2.7-17.2,5.3-25.7,8.5c-4.4,1.6-8.1,0.9-11.7-1.6
			c-2.4-1.6-4.7-3.2-7.5-5.2c-7.8,0-16.1-0.4-24.4,0.2c-4.3,0.3-8.6,1.8-12.6,3.6c-6.3,2.8-12.4,2.9-18.8,1c-3.7-1.1-7.5-1.4-10.6-2
			c-9.5,4.7-18.1,8.9-27,13.4c-6.9-2.8-14-5.2-20.7-8.4c-4.6-2.1-8.5-1.7-12.5,0.9c-5.6,3.7-11.1,7.6-16.9,11.5c-3.2,0-6.5,0-9.9,0
			c-0.5-0.2-1.1-0.3-1.4-0.7c-5-6.2-11.7-8.8-19.3-10.2c-8.8-1.6-17.5-4.2-26.2-6.3c-3.5-0.8-7-1.3-10.4-1.9
			c-13,9.3-24.4,20.2-41.4,23.7c-6-4.2-13-9-20.6-14.3c-5.1,0.7-10.7,1.1-16.3,2.2c-14.3,2.9-28.6,6.1-42.9,9.2
			c-1.5,0.3-2.9,1-4.3,1.6c-7.6-1.2-15.2-2.5-22.8-3.7c-3-0.5-6.1-1.1-9.1-1.6c-6.9-5.7-13.8-11.4-19.2-15.8
			c-17.4-2.4-32.6-5.1-48-6.4c-15.2-1.2-29.6-6.6-45.5-7.1c-4,4.6-8.2,9.1-12.1,13.9c-2.7,3.2-5.5,5.9-9.3,7.9
			c-3.4,1.8-6.5,4.2-9.8,6.4c-1-0.9-2-1.4-2.5-2.3c-6.6-11-17.8-16.1-28.4-22c-4.3-2.4-8-5.7-12.1-8.3c-7-4.4-14.1-8.6-19.5-11.8
			c-10-2.2-17.4,1-24.8,2.9c-6.9,1.8-13.6,3-20.6,2.6c-3.6-0.2-7.2-0.7-10.6-1.6c-13.5-3.2-27.1-3.5-40.7-3
			c-10.5-4.2-20.8-8.4-31.2-12.6c-12.6,0-25.4,0-38.9,0c-6.5,3.5-13.5,7.4-20,11c-7.1-0.5-12.5-5.1-19.6-4.5
			c-0.4,2.3-0.7,4.5-1.1,7.1c-6.3,0-12.5,0-18.4,0c-3.3-3.5-6.5-6.9-9.7-10.3c-4.1-0.1-7.7-0.3-11.7,0.9c-4.5,1.4-9,0.5-13.3-2.3
			c-6.9-4.4-12.2-10.1-16.9-16.6c-0.8-1-1.6-2-2.5-3c-9.1-9.6-18.2-19.2-27.3-28.9c-0.5-0.6-0.9-1.3-1.3-1.9
			c1.7,0.4,3.6,0.5,5.1,1.2c2.1,0.9,4,2.3,5.9,3.5c9.4-2.7,16.9-9.4,26.6-11.5c1.3,2.1,2.4,3.8,3.8,6.1c9.4,3.4,19.6,6.6,26.1,16
			c5.3,0,10.2,0,15.1,0c3.9,2.3,7.7,4.5,11.6,6.7c4.3-1.6,8.4-3.2,13.6-5.2c2.1,0.4,5.4,1,8.7,1.4c2.3,0.3,4.7,0.5,7,0.4
			c7.6-0.5,15.1,0.2,22.3,1.8c5.2,1.2,9.9,4.3,16.7,7.5c11-0.4,22.3,4.6,32.3,12.9c2.3-1.3,4.3-2.1,5.8-3.4c4.2-3.6,9.2-4.1,14-2.6
			c5.8,1.8,11.2,1.1,16.7-0.7c3.7-1.2,7.4-2.4,11-3.8c4.4-1.7,8.9-2.3,13.6-2.4c5.4-0.1,10.8-1,16.1-1.5c4.3-0.4,8.3,0.3,11.9,3.2
			c3.4-2.2,6.6-4.2,9.9-6.4c6,0,10.3,4.6,16.5,6.3c2-0.9,4.6-2,7.1-3.3c3.5-1.9,6.9-2.1,10.3,0c7.9,4.9,15.7,9.8,25.1,15.7
			c4.6,0,11.1,0,17.9,0c2.6,2.5,5.3,4.9,8.1,7.6c2.4,0,4.9,0,7.6,0c5.3-4.4,10.6-8.9,16.7-14c4.2,0.7,9,1.4,14,2.2
			c1.3,2.9,2.5,5.7,3.8,8.7c4.3-3,8.4-5.7,12.4-8.5c7.2-5,14.8-9,23.7-10.5c9.3-1.6,18.5-4.2,28.1-6.5c4.3-5.1,8.9-10.7,14-16.7
			c8.5-0.4,17-0.8,25.4-1.3c3-0.2,5.7,0.6,8.1,2.3c5.6,4.1,11,8.5,17.2,13.3c4.8,0,10.2,0.3,15.7-0.1c9.8-0.7,19,1.3,28.1,4.6
			c4,1.4,8,1.9,12.2,1.8c11.2-0.2,22.4-0.1,34.3-0.1c4.7,6,9.5,12.3,14.5,18.7c5.9,0,11.9,0.5,17.9-0.2c5.1-0.5,10-2.2,14.9-3.7
			c5.6-1.7,11.4-3,16.4-6.5c2-1.4,4.7-1.7,6.7-2.4c4.2,3,7.7,5.6,11.6,8.4c4-1.5,8.1-3,13.7-5c2.8-0.6,6.5,0.8,10.3,2.8
			c10,5,20,9.8,28.9,16.6c1.4,1.1,3.1,1.7,4.9,2.7c9.3-5.3,18.6-10.5,27.6-15.7c4.4,0,8.6,0,12.3,0c6.9-3,11.2-9.7,18.8-11.2
			c5.7,3.8,11.4,7.3,16.8,11.3c3.8,2.8,8,4.5,12.5,5.7c9.2,2.5,18.4,5,27.5,7.5c0.7,0.2,1.5,0.6,2.2,0.6c6.7,0.6,13.4,1,20,1.7
			c6.9,0.7,13.7,1.8,20.6,2.6c2,0.3,4.1,0.4,6.2,0.4c9.4,0,18.7,0,28.6,0c17.3,7.1,35,14.3,53.8,22c3.8-1.3,8.7-2.8,13.4-4.7
			c19.4-8,39.4-13.7,59.7-18.6c2-0.5,4.1-0.2,6.2-0.2c11.7,0,23.4,0.1,35.1-0.1c3.3-0.1,6.8-0.5,9.8-1.7
			c14.3-5.3,28.5-10.7,42.7-16.3c6.4-2.5,12.2-3.2,18.5,0.7c5.9,3.7,12.3,6.5,19.3,7.9C1617.9,961.5,1621.5,962,1625.1,962.6z"/>
		<path class="st3" d="M1932.9,1287.6c-0.2,0.7-0.3,1.5-0.6,2.7c-13.5,2.2-27.2,4.3-40.8,6.7c-12.8,2.3-25.6,5.1-38.4,7.5
			c-6.8,1.3-13.7,2.1-20.5,3.3c-10.8,1.9-21.6,4.2-32.4,6c-10.6,1.8-21.3,3.1-31.9,5c-12.6,2.2-25.1,4.9-37.7,7.2
			c-7.6,1.4-15.2,2.4-22.8,3.6c-6.3,1-12.6,2.1-18.9,3.3c-8.1,1.5-16.1,3-24.1,4.5c-10.6,2-21.1,4.2-31.7,6
			c-10.6,1.8-21.3,3.1-31.9,5c-12.8,2.3-25.6,5.1-38.4,7.5c-7.1,1.3-14.2,2.1-21.3,3.4c-10.6,1.9-21.1,4.1-31.7,5.9
			c-10.6,1.8-21.3,3.1-31.9,5c-12.8,2.3-25.6,5.1-38.4,7.5c-6.8,1.3-13.7,2.2-20.5,3.4c-11.1,2-22.1,4.2-33.2,6.1
			c-10.6,1.8-21.3,3.2-31.9,5c-6.8,1.2-13.5,2.8-20.3,4.1c-2,0.4-4.1,0.4-6.2,0.4c-17.7,0-35.4,0-53.8,0
			c-18.9-7.9-38.3-16.1-57.9-24.1c-17.9-7.3-35.9-14.2-53.8-21.5c-5.2-2.1-10.1-4.9-15.2-7.4c5.6-0.7,11.2-1.3,16.8-2.2
			c7.8-1.3,15.7-2.7,23.5-4.1c7.8-1.4,15.6-3,23.4-4.4c10.6-1.8,21.3-3.2,31.9-5.1c13.4-2.4,26.7-5.1,40.1-7.5
			c7.6-1.3,15.3-2.2,22.9-3.4c10.1-1.7,20.2-3.5,30.3-5.3c7.8-1.4,15.7-2.7,23.5-4c7.3-1.3,14.6-2.6,22-3.8c7.8-1.3,15.7-2.6,23.5-4
			c10.4-1.8,20.7-3.6,31.1-5.4c7.6-1.3,15.1-2.7,22.7-4c7.3-1.2,14.7-2.3,22-3.6c7.8-1.3,15.6-2.9,23.5-4.2c7.3-1.3,14.7-2.4,22-3.7
			c7.8-1.3,15.6-2.8,23.5-4.2c10.4-1.8,20.8-3.4,31.1-5.2c7.8-1.3,15.6-2.8,23.5-4.2c7.3-1.3,14.7-2.4,22-3.7
			c7.8-1.3,15.6-2.8,23.5-4.1c10.4-1.8,20.8-3.4,31.1-5.2c7.8-1.3,15.6-2.8,23.5-4.2c7.3-1.3,14.7-2.4,22-3.7
			c7.8-1.3,15.6-2.8,23.5-4.1c10.4-1.8,20.7-3.5,31.1-5.2c7.8-1.3,15.6-2.8,23.5-4.1c7.3-1.3,14.7-2.5,22-3.7
			c7.8-1.3,15.7-2.7,23.5-4.1c10.4-1.8,20.7-3.5,31.1-5.3c7.8-1.3,15.6-2.8,23.5-4.1c3.8-0.6,7.6-1,11.4-1.5c0,0.5-0.1,1.1,0,1.6
			c3.9,16.2,7.9,32.4,11.8,48.7C1929.4,1271,1931.1,1279.3,1932.9,1287.6z"/>
		<path class="st2" d="M1807.9,996.8c-1.4-2.4-3.7-1.5-5.6-1.5c-10.1-0.1-20.2,0-29.9,0c-10.2-5.9-19.9-11.6-28.1-16.4
			c-20.5-3.2-39.2-6.2-59.5-9.4c-2.5-1.6-6.4-4-10.3-6.5c-3.2-2.1-6.8-2.1-10.5-2.1c2.2-2.5,4.5-5,6.2-7c7.8-2.3,14.7-0.2,21.3,1.2
			c7.4,1.6,14.3,1.1,21.3-0.7c10.9-2.8,20.8-1,30.2,5c6.1,3.9,12.2,7.6,18.1,11.2c13.1-5.8,25.6-11.3,38.2-16.9
			c1.3-2.2,2.8-4.6,4.1-6.8c9.9,1.8,33.6,15.6,59.1,34.1C1844.3,986.4,1826.1,991.6,1807.9,996.8z"/>
		<path class="st2" d="M1932.9,1287.6c-1.8-8.3-3.5-16.6-5.5-24.8c-3.9-16.2-7.9-32.4-11.8-48.7c-0.1-0.5,0-1,0-1.6
			c8.5-1.6,17-3.2,25.5-4.7c7.8-1.4,15.5-2.8,23.3-4.1c7.5-1.3,15.1-2.4,22.6-3.7c1.7-0.3,3.4-0.9,5.1-1.4c-5.3,19-10.5,38-15.8,57
			c-2.8,9.8-5.8,19.6-8.5,28.9c-1,0.6-1.4,1.1-1.9,1.2C1955,1286.3,1943.9,1286.9,1932.9,1287.6z"/>
	</g>
</g>
<path class="st4" d="M1999.7,998.1c-24.3-12.2-50.9-15.3-76.3-22.8c-2.4-0.7-5.2-0.1-7-0.1c-46.4,17.1-90.3,38.4-134.2,58.4
	c-45.7,6.7-90.9,13.4-136.9,20.1c-22.3,22.3-45.1,45.1-68.5,68.5c-4.1-0.6-8.3-1.2-12.6-1.8c-4.3-0.6-8.7-1.1-13-1.6
	c-10.7-1.2-21.5-2.4-31.5-3.6c-15.5-5.2-30.4-10.3-45.3-15.3c-14.9-5-29.9-9.7-44.7-15c-7.8-2.8-15.2-6.4-22.7-9.8
	c-8-3.6-16-7.3-25.4-11.6c-2.7,0.6-6.8,1.2-10.6,2.4c-11.8,3.8-23.4,8.2-35.2,11.8c-9.8,3-19.8,5.5-29.8,7.8
	c-12.7,3-25.6,5.6-38.3,8.6c-14.3,3.3-28.5,6.8-42.7,10.1c-2,0.5-4.1,0.1-6.2,0.1c-17-7.6-33.9-15.1-52-23.1
	c-3.5-0.2-8-0.2-12.7,1.2c-6.3,2-12.9,3.5-19.5,4.6c-3.2,0.5-6.8,0.2-9.9-0.7c-19.2-5-38.3-10.1-57.3-15.4c-4.3-1.2-8.1-0.9-12,1.1
	c-5.3,2.7-10.8,5.1-15.9,8.1c-10,5.9-20.9,8.3-32.1,10.5c-11.6,2.3-23,5.3-34.5,8c-12.2,2.9-24.4,6.1-36.7,8.7
	c-4,0.9-8.4,0.7-12.4,0.2c-8.9-1.2-17.7-3.1-26.6-4.3c-4.1-0.5-8.3-0.1-12.7-0.1c-19.8,8.7-39.9,17.5-60.6,26.6
	c-8.5-2.8-17.6-5.8-26.6-8.7c-9.3-3-18.5-6.4-28-8.8c-11.9-3-24.1-5.3-36.1-7.8c-11.6-2.4-23.1-4.7-34.7-7.1
	c-3.3-0.7-6.5-1.9-9.8-2.1c-3.8-0.2-7.8,0-11.4,1.1c-18.2,5.7-36.4,11.5-54.3,17.8c-8.6,3-17.6,3.7-26.3,5.7
	c-14.5,3.3-29.2,6-43.8,8.9c-9.3,1.8-18.7,3.5-28,5.3c-12.1,2.4-24.2,4.8-36.2,7.3c-3.9,0.8-7.5,0.8-11.4-0.6
	c-20.1-7.2-40.5-13.6-60.5-21.1c-16.2-6.1-31.9-13.3-47.8-19.8c-15.7-6.4-31.6-12.6-47.3-19c-10-4.1-20-8.3-30-12.5
	c-4.1-1.8-8.2-2.8-12.7-2.9c-22-0.4-44.2-0.1-66.1-1.8c-13.2-1-26.5,0.2-39.6-1.5c-12.7-1.7-25.5,0.1-38-1.5
	c-14.8-1.9-29.5-0.6-44.8-1.5c-4.2-2.1-8.8-4.4-13.5-6.6c-21.8-10.7-43.7-21.4-65.5-32.1c-3.7-1.8-7.6-3.2-11.4-4.9
	c0,92.7,0,185.4,0,278.1c21-0.5,42-1.1,63-1.5c3.9-0.1,7.8,0.3,11.7-0.1c21-2,42.1-0.2,63-1.9c17.4-1.4,34.8,0.3,52.1-1.4
	c19.5-1.9,39,0.2,58.3-1.7c17.9-1.7,35.9,0.3,53.6-1.5c18.7-1.9,37.4,0.3,56-1.6c18.2-1.9,36.4,0.3,54.4-1.5c19-1.9,38,0.3,56.8-1.6
	c17.4-1.7,34.8,0.2,52.1-1.5c19.7-2,39.5,0.2,59.1-1.7c16.9-1.6,33.8,0.2,50.5-1.4c19.5-1.8,39,0.1,58.3-1.7
	c18.5-1.7,36.9,0.3,55.2-1.5c18.4-1.9,36.9,0.2,55.2-1.6c18.2-1.8,36.4,0.3,54.4-1.5c19-1.9,38,0.3,56.8-1.6
	c18.2-1.8,36.4,0.3,54.4-1.5c18.2-1.9,36.4,0.3,54.4-1.6c19-1.9,38,0.3,56.8-1.6c18.2-1.8,36.4,0.3,54.4-1.5
	c18.2-1.9,36.4,0.3,54.4-1.6c19-1.9,38,0.3,56.8-1.6c18.2-1.8,36.4,0.3,54.4-1.5c18.4-1.9,36.9,0.3,55.2-1.6
	c18.5-1.9,36.9,0.3,55.2-1.5c18.7-1.9,37.5,0.3,56-1.6c17.7-1.8,35.4,0.3,52.9-1.5c19.5-2,39,0.2,58.3-1.6
	c17.4-1.7,34.8,0.2,52.1-1.5c19.2-1.9,38.5,0.2,57.5-1.7c17.2-1.7,34.3,0.1,51.3-1.4c19.7-1.8,39.5,0,59.1-1.7
	c17.9-1.6,35.9,0.3,53.6-1.5c19-1.9,38,0.3,56.8-1.6c18.2-1.8,36.4,0.2,54.4-1.6c13.5-1.3,26.9-0.6,40.3-1.5
	c0.3-0.3,0.5-0.5,0.6-0.7c0.2-0.2,0.4-0.4,0.4-0.6c0.1-77.9,0.2-155.7,0.3-233.6C2000,1000.9,1999.8,999.4,1999.7,998.1z"/>
<image style="overflow:visible;enable-background:new    ;" width="1280" height="216" id="_Image5" xlink:href="89DCFA6E.png"  transform="matrix(1.5625 0 0 1.5625 0 1104.6875)">
</image>
</svg>
