<?xml version="1.0" encoding="UTF-8" standalone="no"?>
<!DOCTYPE svg PUBLIC "-//W3C//DTD SVG 1.1//EN" "http://www.w3.org/Graphics/SVG/1.1/DTD/svg11.dtd">
<svg width="100%" height="100%" viewBox="0 0 1080 1080" version="1.1" xmlns="http://www.w3.org/2000/svg" xmlns:xlink="http://www.w3.org/1999/xlink" xml:space="preserve" xmlns:serif="http://www.serif.com/" style="fill-rule:evenodd;clip-rule:evenodd;stroke-linejoin:round;stroke-miterlimit:2;">
    <g transform="matrix(1.33663,0,0,1.33663,0,-1.33663)">
        <circle cx="404" cy="405" r="404" style="fill:rgb(236,100,24);"/>
    </g>
    <g id="CAMP" transform="matrix(1,0,0,1,-143.5,-25.7388)">
        <g transform="matrix(1,0,0,1,99.5,29.7388)">
            <path d="M872,427C857,361.325 801.794,325.5 746.112,325.5L317.888,325.5C262.206,325.5 217,372.325 217,430L217,639C217,696.675 262.206,743.5 317.888,743.5L818.112,743.5C873.794,743.5 930,696.675 919,639L872,427Z" style="fill:white;"/>
        </g>
        <g transform="matrix(1,0,0,1,99.5,29.7388)">
            <path d="M788,420.188C788,412.358 781.642,406 773.812,406L687.188,406C679.358,406 673,412.358 673,420.188L673,654.812C673,662.642 679.358,669 687.188,669L773.812,669C781.642,669 788,662.642 788,654.812L788,420.188Z" style="fill:rgb(236,100,24);"/>
        </g>
        <g transform="matrix(0.885932,0,0,0.939163,182.827,62.4384)">
            <path d="M788,419.384C788,411.997 781.642,406 773.812,406L687.188,406C679.358,406 673,411.997 673,419.384L673,655.616C673,663.003 679.358,669 687.188,669L773.812,669C781.642,669 788,663.003 788,655.616L788,419.384Z" style="fill:white;"/>
        </g>
        <g transform="matrix(1.34083,0,0,0.410646,-485.876,269.016)">
            <path d="M788,438.448C788,420.539 783.547,406 778.062,406L682.938,406C677.453,406 673,420.539 673,438.448L673,636.552C673,654.461 677.453,669 682.938,669L778.062,669C783.547,669 788,654.461 788,636.552L788,438.448Z" style="fill:rgb(236,100,24);"/>
        </g>
        <g transform="matrix(0.949522,0,0,0.410646,-21.528,269.016)">
            <path d="M788,438.448C788,420.539 781.712,406 773.967,406L687.033,406C679.288,406 673,420.539 673,438.448L673,636.552C673,654.461 679.288,669 687.033,669L773.967,669C781.712,669 788,654.461 788,636.552L788,438.448Z" style="fill:rgb(236,100,24);"/>
        </g>
        <g transform="matrix(0.088652,0,0,0.0383399,728.837,518.089)">
            <path d="M788,438.448C788,420.539 781.712,406 773.967,406L687.033,406C679.288,406 673,420.539 673,438.448L673,636.552C673,654.461 679.288,669 687.033,669L773.967,669C781.712,669 788,654.461 788,636.552L788,438.448Z" style="fill:rgb(236,100,24);"/>
        </g>
        <g transform="matrix(1.20979,0,0,1.20979,-11.2141,-120.366)">
            <circle cx="552.5" cy="715.5" r="71.5" style="fill:rgb(236,100,24);"/>
        </g>
        <g transform="matrix(1,0,0,1,104.695,29.7388)">
            <circle cx="552.5" cy="715.5" r="71.5" style="fill:white;"/>
        </g>
        <g transform="matrix(1,0,0,1,99.5,29.7388)">
            <path d="M990,674.746C990,671.575 987.425,669 984.254,669L857.746,669C854.575,669 852,671.575 852,674.746L852,687.254C852,690.425 854.575,693 857.746,693L984.254,693C987.425,693 990,690.425 990,687.254L990,674.746Z" style="fill:white;"/>
        </g>
        <g transform="matrix(1,0,0,1.58333,99.5,-374.511)">
            <path d="M1008,680.684C1008,674.236 999.71,669 989.5,669C979.29,669 971,674.236 971,680.684L971,681.316C971,687.764 979.29,693 989.5,693C999.71,693 1008,687.764 1008,681.316L1008,680.684Z" style="fill:white;"/>
        </g>
    </g>
</svg>
