<?xml version="1.0" encoding="UTF-8" standalone="no"?>
<!DOCTYPE svg PUBLIC "-//W3C//DTD SVG 1.1//EN" "http://www.w3.org/Graphics/SVG/1.1/DTD/svg11.dtd">
<svg width="100%" height="100%" viewBox="0 0 1080 1080" version="1.1" xmlns="http://www.w3.org/2000/svg" xmlns:xlink="http://www.w3.org/1999/xlink" xml:space="preserve" xmlns:serif="http://www.serif.com/" style="fill-rule:evenodd;clip-rule:evenodd;stroke-linejoin:round;stroke-miterlimit:2;">
    <g transform="matrix(1.33663,0,0,1.33663,0,-1.33663)">
        <circle cx="404" cy="405" r="404" style="fill:rgb(236,100,24);"/>
    </g>
    <g id="HIKE" transform="matrix(1.27321,0,0,1.2758,-129.205,-192.569)">
        <g transform="matrix(1,0,0,1,0,7)">
            <path d="M258,709L282,716L328,726L403,730L435,731L467,728L508,723L544.294,719.671L591.945,717.976L634.804,723.924L680.112,724.378L740,720L769.043,712.203L785.617,697.535L793,681L792,660L740,677L669,690C650.906,692.091 630.03,693.169 592,688L543,691L507,696L466,707L435.909,710.003L404,709L341,702L286,692L259,685L235,676L236,692L244.47,700.97L258,709Z" style="fill:white;"/>
        </g>
        <path d="M249,618L267,601L298,596L352,595L399,588L437,569L458,551L488,520L510,490L525,463L533.049,440.557L536,425L539,398L553,405L577,416L609,425L643,430L660,432L740,441L754,437L773,435L769,490L771,529L775,544L784,576L792,608L795,638.714L792,660L740,677L669,690C650.906,692.091 630.03,693.169 592,688L543,691L507,696L466,707L435.909,710.003L404,709L341,702L286,692L259,685L235,676L239,658L243,634L249,618Z" style="fill:white;"/>
        <g transform="matrix(0.960714,0,0,0.960714,22.2321,19.6357)">
            <path d="M592,688C613.19,596.644 678.795,561.336 784,576L792,608L795,638.714L792,660L740,677L669,690C650.906,692.091 630.03,693.169 592,688Z" style="fill:rgb(236,100,24);"/>
        </g>
        <g transform="matrix(0.872044,0,0,0.835525,85.7248,97.7882)">
            <path d="M592,688C613.19,596.644 678.795,561.336 784,576L792,608L795,638.714L792,660L740,677L669,690C650.906,692.091 630.03,693.169 592,688Z" style="fill:white;"/>
        </g>
        <g transform="matrix(1,0,0,1,1,-6)">
            <path d="M672,414L650.168,411.616L619,407L580,394L544,378L538.697,386.939L539,398L553,405L577,416L609,425L643,430L660,432L740,441L754,437L773,435L775.708,422.781L774.473,416.025L758.959,414.207L740.542,417.059L714.947,419.069L688.496,415.566L672,414Z" style="fill:white;"/>
        </g>
        <g transform="matrix(0.8,0,0,0.8,97.4,40.6)">
            <circle cx="574.5" cy="500.5" r="12.5" style="fill:rgb(236,100,24);"/>
        </g>
        <g transform="matrix(0.8,0,0,0.8,82.4,87.6)">
            <circle cx="574.5" cy="500.5" r="12.5" style="fill:rgb(236,100,24);"/>
        </g>
        <g transform="matrix(0.8,0,0,0.8,57.4,129.6)">
            <circle cx="574.5" cy="500.5" r="12.5" style="fill:rgb(236,100,24);"/>
        </g>
        <g transform="matrix(0.8,0,0,0.8,27.4,166.6)">
            <circle cx="574.5" cy="500.5" r="12.5" style="fill:rgb(236,100,24);"/>
        </g>
    </g>
</svg>
